<svg width="228" height="58" viewBox="0 0 228 58" fill="none" xmlns="http://www.w3.org/2000/svg">
<path d="M105.762 57.8053V48.9001H111.136V49.8567H106.84V52.8657H110.858V53.8223H106.84V56.8487H111.206V57.8053H105.762Z" fill="#08C8B3"/>
<path d="M120.066 48.9001L122.361 52.6048H122.431L124.727 48.9001H125.997L123.196 53.3527L125.997 57.8053H124.727L122.431 54.1702H122.361L120.066 57.8053H118.796L121.666 53.3527L118.796 48.9001H120.066Z" fill="#08C8B3"/>
<path d="M142.381 51.683H141.303C141.239 51.3728 141.128 51.1003 140.968 50.8655C140.812 50.6307 140.62 50.4336 140.394 50.2741C140.171 50.1118 139.923 49.99 139.651 49.9089C139.378 49.8277 139.094 49.7871 138.799 49.7871C138.259 49.7871 137.771 49.9234 137.333 50.1959C136.898 50.4683 136.552 50.8698 136.294 51.4003C136.039 51.9308 135.911 52.5816 135.911 53.3527C135.911 54.1238 136.039 54.7746 136.294 55.305C136.552 55.8355 136.898 56.237 137.333 56.5095C137.771 56.782 138.259 56.9182 138.799 56.9182C139.094 56.9182 139.378 56.8777 139.651 56.7965C139.923 56.7153 140.171 56.595 140.394 56.4356C140.62 56.2733 140.812 56.0747 140.968 55.8399C141.128 55.6022 141.239 55.3297 141.303 55.0224H142.381C142.3 55.4775 142.152 55.8848 141.938 56.2443C141.723 56.6037 141.457 56.9096 141.138 57.1618C140.819 57.4111 140.461 57.6009 140.064 57.7314C139.67 57.8618 139.248 57.927 138.799 57.927C138.039 57.927 137.364 57.7415 136.772 57.3705C136.181 56.9994 135.716 56.4718 135.376 55.7877C135.037 55.1036 134.868 54.2919 134.868 53.3527C134.868 52.4135 135.037 51.6018 135.376 50.9177C135.716 50.2335 136.181 49.7059 136.772 49.3349C137.364 48.9638 138.039 48.7783 138.799 48.7783C139.248 48.7783 139.67 48.8435 140.064 48.974C140.461 49.1044 140.819 49.2958 141.138 49.548C141.457 49.7973 141.723 50.1016 141.938 50.4611C142.152 50.8177 142.3 51.2249 142.381 51.683Z" fill="#08C8B3"/>
<path d="M152.083 57.8053V48.9001H153.161V52.8657H157.91V48.9001H158.988V57.8053H157.91V53.8223H153.161V57.8053H152.083Z" fill="#08C8B3"/>
<path d="M169.471 57.8053H168.341L171.611 48.9001H172.724L175.994 57.8053H174.863L172.202 50.3089H172.132L169.471 57.8053ZM169.889 54.3267H174.446V55.2833H169.889V54.3267Z" fill="#08C8B3"/>
<path d="M192.401 48.9001V57.8053H191.358L186.505 50.8133H186.418V57.8053H185.34V48.9001H186.383L191.253 55.9095H191.34V48.9001H192.401Z" fill="#08C8B3"/>
<path d="M208.606 51.683C208.51 51.3902 208.384 51.1278 208.227 50.8959C208.074 50.6611 207.89 50.4611 207.675 50.2959C207.464 50.1306 207.223 50.0045 206.953 49.9176C206.684 49.8306 206.388 49.7871 206.066 49.7871C205.539 49.7871 205.059 49.9234 204.627 50.1959C204.195 50.4683 203.852 50.8698 203.597 51.4003C203.342 51.9308 203.214 52.5816 203.214 53.3527C203.214 54.1238 203.343 54.7746 203.601 55.305C203.859 55.8355 204.208 56.237 204.649 56.5095C205.089 56.782 205.585 56.9182 206.136 56.9182C206.646 56.9182 207.095 56.8095 207.484 56.5921C207.875 56.3718 208.18 56.0616 208.397 55.6616C208.617 55.2587 208.728 54.7847 208.728 54.2397L209.058 54.3093H206.379V53.3527H209.771V54.3093C209.771 55.0427 209.615 55.6804 209.302 56.2225C208.991 56.7646 208.562 57.1849 208.014 57.4835C207.469 57.7792 206.843 57.927 206.136 57.927C205.347 57.927 204.655 57.7415 204.058 57.3705C203.463 56.9994 202.999 56.4718 202.666 55.7877C202.336 55.1036 202.17 54.2919 202.17 53.3527C202.17 52.6483 202.265 52.0149 202.453 51.4525C202.644 50.8872 202.914 50.406 203.262 50.0089C203.61 49.6117 204.021 49.3074 204.497 49.0957C204.972 48.8841 205.495 48.7783 206.066 48.7783C206.536 48.7783 206.974 48.8493 207.38 48.9914C207.788 49.1305 208.152 49.3291 208.471 49.5871C208.793 49.8422 209.061 50.148 209.275 50.5046C209.49 50.8582 209.638 51.251 209.719 51.683H208.606Z" fill="#08C8B3"/>
<path d="M218.082 57.8053V48.9001H223.456V49.8567H219.16V52.8657H223.178V53.8223H219.16V56.8487H223.526V57.8053H218.082Z" fill="#08C8B3"/>
<g clip-path="url(#clip0_1432_1679)">
<path d="M124.359 3.97763C128.062 3.97763 131.77 4.01261 135.472 3.95764C136.687 3.93765 137.051 4.40737 137.051 5.57168C137.051 9.32944 134.593 11.753 131 11.6231C126.178 11.4532 121.346 11.5731 116.519 11.5881C115.649 11.5881 114.775 11.6531 113.905 11.743C112.626 11.8779 111.896 12.7124 111.886 13.9917C111.876 15.2309 112.641 16.2203 113.82 16.3802C114.515 16.4752 115.234 16.4402 115.939 16.4452C120.227 16.4502 124.514 16.5651 128.796 16.4252C135.492 16.2053 138.845 21.7071 138.521 27.0239C138.216 32.0009 135.328 35.5138 130.985 36.3683C130.5 36.4633 129.996 36.5082 129.501 36.5082C122.3 36.5182 115.1 36.5182 107.899 36.5132C106.335 36.5132 106.28 36.4433 106.27 34.9042C106.24 31.0265 108.284 28.9378 112.141 28.9328C117.633 28.9228 123.13 28.9478 128.622 28.9178C130.71 28.9078 131.765 27.4087 131.13 25.4998C130.755 24.3805 129.961 24.0107 128.821 24.0157C124.034 24.0407 119.247 24.0357 114.465 24.0257C109.863 24.0107 106.63 21.6871 105.245 17.4246C103.806 12.9873 105.18 8.10517 108.598 5.60166C110.093 4.50731 111.777 3.98762 113.62 3.98263C117.198 3.97263 120.781 3.98263 124.359 3.98263V3.97763Z" fill="white"/>
<path d="M166.738 36.5067C164.035 36.5067 161.326 36.4767 158.623 36.5217C157.594 36.5367 157.244 36.1219 157.214 35.1225C157.099 31.2448 159.377 28.8063 163.27 28.7713C166.723 28.7413 170.181 28.6464 173.634 28.7763C178.896 28.9762 182.254 24.8886 182.369 20.1764C182.489 15.3743 178.701 11.6465 173.699 11.5915C168.662 11.5366 163.625 11.5516 158.593 11.6065C157.549 11.6165 157.254 11.3017 157.209 10.2773C157.049 6.57953 159.427 3.76121 163.365 3.9461C166.893 4.111 170.441 3.97608 173.979 3.98608C181.834 4.00107 188.49 9.9975 189.42 17.8828C190.284 25.2084 186.731 31.9694 180.375 35.0526C178.401 36.007 176.307 36.5067 174.109 36.5117C171.655 36.5167 169.197 36.5117 166.743 36.5117L166.738 36.5067Z" fill="white"/>
<path d="M212.562 3.98866C216.555 3.98866 220.552 3.98866 224.545 3.98866C226.064 3.98866 226.119 4.0886 226.144 5.63768C226.204 9.1306 223.875 11.7291 220.177 11.6141C214.776 11.4492 209.359 11.6041 203.952 11.5492C202.758 11.5392 202.343 11.9039 202.378 13.1132C202.493 17.0309 201.868 16.4213 205.646 16.4512C210.138 16.4862 214.636 16.4912 219.128 16.4412C220.312 16.4263 220.722 16.806 220.717 18.0153C220.697 21.868 218.658 24.0067 214.826 24.0167C210.248 24.0317 205.671 24.0317 201.094 24.0167C197.391 24.0017 195.197 21.8031 195.167 18.1053C195.147 15.3569 195.147 12.6135 195.167 9.86516C195.197 6.13239 197.361 3.98866 201.074 3.98367C204.902 3.97867 208.729 3.98367 212.557 3.98367L212.562 3.98866Z" fill="white"/>
<path d="M151.608 20.3845C151.608 25.1667 151.608 29.9488 151.608 34.731C151.608 36.42 151.493 36.5249 149.869 36.5249C146.601 36.5249 144.203 34.3012 144.178 31.0232C144.118 23.8325 144.113 16.6368 144.178 9.44604C144.208 6.12302 146.556 3.9793 149.879 3.98929C151.468 3.98929 151.603 4.10922 151.608 5.67329C151.618 8.75145 151.608 11.8246 151.608 14.9028C151.608 16.7317 151.608 18.5606 151.608 20.3895V20.3845Z" fill="white"/>
<path d="M210.718 28.8426C215.341 28.8426 219.958 28.8775 224.58 28.8226C225.774 28.8076 226.179 29.2073 226.164 30.4016C226.124 34.1794 223.97 36.4031 220.218 36.4031C213.852 36.4031 207.48 36.4081 201.114 36.4031C197.311 36.4031 195.123 34.0994 195.153 30.2667C195.163 29.1874 195.522 28.8076 196.612 28.8176C201.314 28.8625 206.016 28.8376 210.723 28.8376L210.718 28.8426Z" fill="white"/>
</g>
<path d="M40.9779 54.4562C36.9887 56.4411 32.7724 57.453 28.3615 57.44C20.9149 57.4141 14.4023 54.8389 8.999 49.7275C-2.0347 39.3035 -3.03364 22.607 6.79356 11.0284C16.4716 -0.368514 31.4167 -1.15339 41.1401 4.13967C33.181 10.5938 28.7961 18.8707 28.7377 29.1974C28.6793 39.5241 32.9475 47.8593 40.9714 54.4627L40.9779 54.4562Z" fill="white"/>
<path d="M60.2576 57.0535C44.8195 56.7746 32.5079 44.7614 32.5922 29.2649C32.6766 13.5414 45.1178 1.64499 60.7765 1.67094C76.1757 1.69689 88.7597 14.709 88.2213 30.2768C87.7089 45.0728 75.514 57.1249 60.2576 57.0535ZM48.0238 8.96836C48.1601 9.13053 48.2379 9.21485 48.3157 9.30567C49.2239 10.3695 50.2033 11.3814 51.0336 12.5036C54.2445 16.8431 56.1061 21.708 56.5278 27.1049C56.7678 30.2055 56.4824 33.2736 55.704 36.2705C54.718 40.0651 53.025 43.529 50.5601 46.5906C49.8077 47.5247 48.9774 48.3874 48.1795 49.2826C48.0303 49.4512 47.8163 49.6069 48.1795 49.8015C51.079 51.4037 54.1083 52.5972 57.4359 52.954C60.2576 53.2588 63.0598 53.2005 65.8296 52.5713C71.1226 51.3648 75.5011 48.6144 78.939 44.4501C83.285 39.1894 84.8937 33.0726 84.1477 26.3524C83.8234 23.3946 82.8698 20.5923 81.4363 17.9588C78.8482 13.2106 75.034 9.77919 70.1302 7.57374C65.7906 5.62128 61.2241 5.14776 56.5343 5.87426C54.3418 6.21156 52.2466 6.89914 50.2358 7.83969C49.5093 8.18348 48.8022 8.55971 48.0174 8.96188L48.0238 8.96836Z" fill="#08C8B3"/>
<defs>
<clipPath id="clip0_1432_1679">
<rect width="122.597" height="32.5856" fill="white" transform="translate(104.686 3.92969)"/>
</clipPath>
</defs>
</svg>
