<svg width="192" height="60" viewBox="0 0 192 60" fill="none" xmlns="http://www.w3.org/2000/svg">
<g clip-path="url(#clip0_1432_1649)">
<path d="M91.4209 4.77678C95.006 4.77678 98.5959 4.81065 102.181 4.75743C103.357 4.73807 103.71 5.19286 103.71 6.32015C103.71 9.95845 101.329 12.305 97.8508 12.1792C93.182 12.0147 88.5035 12.1308 83.8298 12.1453C82.988 12.1453 82.1413 12.2082 81.2995 12.2953C80.0609 12.4259 79.3545 13.2339 79.3449 14.4725C79.3352 15.6723 80.0754 16.6303 81.2172 16.7851C81.8897 16.877 82.5864 16.8431 83.2686 16.848C87.4198 16.8528 91.5709 16.9641 95.7172 16.8286C102.2 16.6158 105.447 21.9426 105.132 27.0904C104.837 31.9092 102.041 35.3104 97.8363 36.1377C97.367 36.2297 96.8784 36.2732 96.3994 36.2732C89.4276 36.2829 82.4558 36.2829 75.484 36.278C73.9697 36.278 73.9164 36.2103 73.9068 34.7201C73.8777 30.9657 75.8565 28.9434 79.5916 28.9385C84.9087 28.9289 90.2307 28.9531 95.5479 28.924C97.5702 28.9144 98.5911 27.4629 97.9766 25.6147C97.6138 24.531 96.8445 24.173 95.7414 24.1778C91.1064 24.202 86.4715 24.1971 81.8414 24.1875C77.3854 24.173 74.2551 21.9232 72.9149 17.7963C71.5216 13.5 72.852 8.7731 76.1614 6.34918C77.608 5.28962 79.2384 4.78646 81.0237 4.78162C84.4878 4.77194 87.9568 4.78162 91.4209 4.78162V4.77678Z" fill="white"/>
<path d="M132.454 36.2711C129.837 36.2711 127.215 36.2421 124.597 36.2856C123.601 36.3001 123.262 35.8985 123.233 34.9309C123.122 31.1765 125.328 28.8155 129.097 28.7816C132.44 28.7526 135.788 28.6607 139.131 28.7864C144.226 28.98 147.477 25.0224 147.588 20.46C147.704 15.8105 144.037 12.2012 139.194 12.148C134.317 12.0948 129.44 12.1093 124.568 12.1625C123.557 12.1722 123.272 11.8674 123.228 10.8756C123.073 7.29534 125.376 4.56662 129.189 4.74563C132.604 4.90529 136.039 4.77466 139.465 4.78434C147.07 4.79885 153.515 10.6046 154.415 18.2393C155.252 25.332 151.812 31.878 145.658 34.8632C143.747 35.7873 141.719 36.2711 139.591 36.2759C137.215 36.2808 134.835 36.2759 132.459 36.2759L132.454 36.2711Z" fill="white"/>
<path d="M176.809 4.78238C180.675 4.78238 184.545 4.78238 188.411 4.78238C189.882 4.78238 189.935 4.87914 189.959 6.37897C190.017 9.76085 187.763 12.2767 184.183 12.1654C178.953 12.0058 173.708 12.1557 168.473 12.1025C167.317 12.0928 166.915 12.446 166.949 13.6169C167.06 17.41 166.456 16.8197 170.113 16.8488C174.463 16.8826 178.817 16.8875 183.167 16.8391C184.313 16.8246 184.71 17.1923 184.705 18.3631C184.686 22.0933 182.712 24.164 179.001 24.1737C174.569 24.1882 170.137 24.1882 165.706 24.1737C162.121 24.1592 159.997 22.0304 159.968 18.4502C159.948 15.7892 159.948 13.133 159.968 10.4721C159.997 6.85795 162.092 4.78238 165.686 4.77754C169.392 4.7727 173.098 4.77754 176.804 4.77754L176.809 4.78238Z" fill="white"/>
<path d="M117.812 20.6582C117.812 25.2883 117.812 29.9184 117.812 34.5486C117.812 36.1839 117.701 36.2855 116.128 36.2855C112.964 36.2855 110.642 34.1325 110.618 30.9587C110.56 23.9965 110.555 17.0296 110.618 10.0675C110.647 6.85011 112.921 4.77454 116.138 4.78421C117.677 4.78421 117.807 4.90033 117.812 6.41467C117.822 9.39498 117.812 12.3704 117.812 15.3508C117.812 17.1215 117.812 18.8923 117.812 20.663V20.6582Z" fill="white"/>
<path d="M175.024 28.8545C179.5 28.8545 183.97 28.8883 188.445 28.8351C189.602 28.8206 189.994 29.2076 189.979 30.364C189.94 34.0216 187.855 36.1746 184.222 36.1746C178.058 36.1746 171.889 36.1794 165.725 36.1746C162.044 36.1746 159.924 33.9442 159.953 30.2333C159.963 29.1883 160.311 28.8206 161.366 28.8303C165.919 28.8738 170.472 28.8496 175.029 28.8496L175.024 28.8545Z" fill="white"/>
</g>
<g clip-path="url(#clip1_1432_1649)">
<path d="M29.3308 59.5248C19.1016 59.1282 11.5289 55.5818 5.636 48.5557C5.20937 48.0457 4.8594 47.4724 4.41276 46.9858C2.58291 44.9993 3.11953 42.6728 3.58616 40.453C4.63941 35.4267 7.06589 31.0404 10.3323 27.1207C11.1356 26.1574 12.1222 25.3208 13.1221 24.5542C14.592 23.4243 16.8951 23.8909 18.245 24.8942C19.8682 26.1041 20.8382 27.8106 21.8614 29.4871C24.1612 33.2635 26.421 37.0699 29.5441 40.2596C31.7906 42.5528 34.4738 43.5994 37.6768 42.9928C40.02 42.5495 41.9832 41.3329 43.763 39.7863C46.7628 37.1765 49.2759 34.1334 51.6657 30.9737C52.1957 30.2704 52.7957 29.6138 53.4089 28.9838C54.0656 28.3106 54.9088 28.2339 55.6654 28.8305C57.0953 29.9571 58.1519 31.177 57.8553 33.2968C57.3753 36.7299 56.4454 39.9797 54.9222 43.0894C52.7823 47.4557 49.6992 51.0255 45.7995 53.8586C42.7164 56.0984 39.32 57.8049 35.5403 58.5449C33.1305 59.0182 30.6907 59.3148 29.3275 59.5281L29.3308 59.5248Z" fill="#2295FF"/>
<path d="M54.5922 16.5921C53.4723 15.8288 52.4357 15.0622 51.3424 14.3889C50.3225 13.759 49.3026 13.8723 48.6193 14.8456C47.5794 16.3321 46.6428 17.8953 45.7795 19.4919C43.323 24.0282 41.3599 28.8411 38.2334 32.9975C37.6301 33.8008 36.8535 34.504 36.0603 35.134C35.0803 35.9106 34.0171 35.8706 33.0072 35.1506C31.3473 33.9641 30.2207 32.3209 29.2708 30.5577C27.7643 27.7679 26.4544 24.8548 24.7645 22.1817C22.5747 18.7219 19.6349 16.0355 15.5285 14.9222C14.0153 14.5123 12.5521 14.8522 11.1189 15.2855C7.55916 16.3621 4.72272 18.5886 2.08625 21.1017C1.39631 21.7617 0.786356 22.5083 0.123074 23.2316C-0.84685 21.3284 4.10276 12.3791 8.40576 8.34607C17.8717 -0.52657 31.6839 -1.78314 42.2531 3.81642C47.6027 6.64954 51.6991 10.7592 54.5822 16.0788C54.6522 16.2088 54.5922 16.4121 54.5922 16.5921Z" fill="white"/>
</g>
<path d="M73.3652 48.5938H74.5647L77.3852 55.4828H77.4825L80.303 48.5938H81.5025V56.8931H80.5623V50.5875H80.4813L77.8877 56.8931H76.98L74.3864 50.5875H74.3054V56.8931H73.3652V48.5938Z" fill="#2295FF"/>
<path d="M98.0996 56.8931H97.046L100.093 48.5938H101.131L104.178 56.8931H103.125L100.644 49.9067H100.58L98.0996 56.8931ZM98.4886 53.6512H102.736V54.5427H98.4886V53.6512Z" fill="#2295FF"/>
<path d="M119.713 56.8931V48.5938H122.517C123.165 48.5938 123.697 48.7045 124.113 48.926C124.53 49.1449 124.838 49.4461 125.037 49.8297C125.237 50.2134 125.337 50.6497 125.337 51.1387C125.337 51.6277 125.237 52.0613 125.037 52.4395C124.838 52.8177 124.531 53.1149 124.118 53.331C123.704 53.5444 123.176 53.6512 122.533 53.6512H120.264V52.7434H122.501C122.944 52.7434 123.3 52.6786 123.57 52.5489C123.843 52.4192 124.041 52.2355 124.162 51.9978C124.286 51.7573 124.349 51.471 124.349 51.1387C124.349 50.8064 124.286 50.5159 124.162 50.2674C124.038 50.0188 123.839 49.827 123.566 49.692C123.294 49.5542 122.933 49.4853 122.484 49.4853H120.718V56.8931H119.713ZM123.619 53.1649L125.662 56.8931H124.494L122.484 53.1649H123.619Z" fill="#2295FF"/>
<path d="M141.254 56.8931V48.5938H142.259V52.711H142.356L146.084 48.5938H147.397L143.912 52.3382L147.397 56.8931H146.181L143.296 53.0352L142.259 54.2023V56.8931H141.254Z" fill="#2295FF"/>
<path d="M162.94 56.8931V48.5938H167.948V49.4853H163.945V52.2895H167.689V53.1811H163.945V56.0016H168.013V56.8931H162.94Z" fill="#2295FF"/>
<path d="M183.548 49.4853V48.5938H189.772V49.4853H187.162V56.8931H186.157V49.4853H183.548Z" fill="#2295FF"/>
<defs>
<clipPath id="clip0_1432_1649">
<rect width="118.699" height="31.5496" fill="white" transform="translate(72.3691 4.7334)"/>
</clipPath>
<clipPath id="clip1_1432_1649">
<rect width="57.9022" height="59.0921" fill="white" transform="translate(0 0.433594)"/>
</clipPath>
</defs>
</svg>
