<svg width="216" height="54" viewBox="0 0 216 54" fill="none" xmlns="http://www.w3.org/2000/svg">
<path d="M108.458 18.8702C112.342 18.8702 116.232 18.9069 120.115 18.8493C121.389 18.8283 121.772 19.321 121.772 20.5423C121.772 24.4839 119.193 27.026 115.424 26.8897C110.366 26.7115 105.298 26.8373 100.235 26.853C99.3226 26.853 98.4053 26.9211 97.4933 27.0155C96.1515 27.157 95.3862 28.0323 95.3757 29.3742C95.3653 30.674 96.1672 31.7118 97.4042 31.8796C98.1328 31.9792 98.8875 31.9425 99.6266 31.9477C104.124 31.953 108.621 32.0735 113.113 31.9267C120.136 31.6961 123.653 37.467 123.313 43.0439C122.993 48.2644 119.963 51.9492 115.409 52.8455C114.9 52.9451 114.371 52.9922 113.852 52.9922C106.299 53.0027 98.746 53.0027 91.193 52.9975C89.5525 52.9975 89.4948 52.9241 89.4843 51.3097C89.4529 47.2423 91.5966 45.0514 95.6431 45.0462C101.403 45.0357 107.169 45.0619 112.929 45.0304C115.12 45.0199 116.226 43.4475 115.561 41.4453C115.168 40.2712 114.334 39.8833 113.139 39.8885C108.118 39.9148 103.096 39.9095 98.0803 39.899C93.2529 39.8833 89.8617 37.446 88.4098 32.975C86.9003 28.3206 88.3417 23.1997 91.9269 20.5737C93.4941 19.4258 95.2604 18.8807 97.1945 18.8755C100.947 18.865 104.706 18.8755 108.458 18.8755V18.8702Z" fill="white"/>
<path d="M152.912 52.9886C150.076 52.9886 147.235 52.9572 144.399 53.0044C143.32 53.0201 142.953 52.585 142.921 51.5367C142.801 47.4694 145.191 44.9115 149.274 44.8748C152.896 44.8434 156.523 44.7438 160.145 44.8801C165.664 45.0897 169.186 40.8022 169.307 35.8595C169.433 30.8224 165.46 26.9123 160.213 26.8546C154.93 26.797 149.646 26.8127 144.368 26.8704C143.273 26.8809 142.963 26.5506 142.916 25.4761C142.748 21.5974 145.243 18.6413 149.374 18.8352C153.074 19.0082 156.796 18.8666 160.507 18.8771C168.746 18.8928 175.728 25.1826 176.703 33.4537C177.609 41.1377 173.883 48.2294 167.216 51.4634C165.145 52.4645 162.949 52.9886 160.643 52.9939C158.069 52.9991 155.49 52.9939 152.917 52.9939L152.912 52.9886Z" fill="white"/>
<path d="M200.962 18.8806C205.15 18.8806 209.344 18.8806 213.532 18.8806C215.125 18.8806 215.183 18.9854 215.209 20.6103C215.272 24.2741 212.829 26.9997 208.95 26.8791C203.284 26.7061 197.603 26.8686 191.931 26.811C190.679 26.8005 190.244 27.1831 190.28 28.4515C190.401 32.5609 189.746 31.9214 193.708 31.9529C198.42 31.9895 203.138 31.9948 207.85 31.9424C209.092 31.9266 209.522 32.325 209.517 33.5934C209.496 37.6346 207.357 39.878 203.337 39.8884C198.536 39.9042 193.734 39.9042 188.933 39.8884C185.049 39.8727 182.748 37.5665 182.717 33.6878C182.696 30.805 182.696 27.9274 182.717 25.0446C182.748 21.1292 185.018 18.8806 188.912 18.8754C192.927 18.8701 196.942 18.8754 200.957 18.8754L200.962 18.8806Z" fill="white"/>
<path d="M137.042 36.0752C137.042 41.0913 137.042 46.1074 137.042 51.1235C137.042 52.8951 136.922 53.0052 135.218 53.0052C131.79 53.0052 129.275 50.6727 129.248 47.2343C129.185 39.6919 129.18 32.1441 129.248 24.6017C129.28 21.1161 131.743 18.8675 135.229 18.878C136.896 18.878 137.037 19.0038 137.042 20.6443C137.053 23.8731 137.042 27.0966 137.042 30.3253C137.042 32.2437 137.042 34.1621 137.042 36.0805V36.0752Z" fill="white"/>
<path d="M199.029 44.9493C203.877 44.9493 208.72 44.9859 213.569 44.9283C214.821 44.9126 215.246 45.3319 215.23 46.5846C215.188 50.5472 212.929 52.8796 208.993 52.8796C202.315 52.8796 195.632 52.8849 188.955 52.8796C184.966 52.8796 182.67 50.4633 182.701 46.4431C182.712 45.3109 183.089 44.9126 184.232 44.9231C189.164 44.9702 194.096 44.944 199.034 44.944L199.029 44.9493Z" fill="white"/>
<path d="M24.908 19.941C27.1415 19.941 29.3929 19.941 31.6263 19.941C33.3555 19.941 33.4275 19.8686 33.4275 18.0759C33.4275 13.8566 33.4275 9.63731 33.4275 5.41803C33.4275 3.8607 34.0759 3.15447 35.6609 3.15447C40.0197 3.13636 44.3965 3.10015 48.7553 3.19069C49.4398 3.19069 50.3223 3.75205 50.7726 4.33152C53.1502 7.33753 55.4376 10.4341 57.7431 13.5125C63.0565 20.5748 68.3519 27.6553 73.7013 34.6995C74.8 36.13 75.3404 37.5968 75.2683 39.4258C75.1603 43.1923 75.2323 46.9589 75.2323 50.7255C75.2323 52.7536 74.674 53.2969 72.6206 53.2969C68.55 53.2969 64.4794 53.2607 60.4268 53.315C59.184 53.315 58.3195 52.9166 57.581 51.9206C50.7906 42.8302 43.9823 33.7759 37.1739 24.7036C36.5435 23.8706 35.9491 23.0014 35.2467 22.2408C34.9405 21.9149 34.3821 21.8243 33.9498 21.6251C33.7877 22.0416 33.4815 22.4762 33.4635 22.8927C33.4275 26.5869 33.3915 30.281 33.4995 33.9751C33.5536 35.8222 32.9772 37.1622 31.6083 38.4841C26.8533 43.0656 22.2423 47.7919 17.5053 52.4096C17.001 52.8985 16.1364 53.2425 15.452 53.2607C11.1292 53.3331 6.78842 53.315 2.46565 53.2969C0.574435 53.2969 0.0160764 52.7174 0.0160764 50.7979C0.0160764 46.5786 -0.0379582 42.3593 0.0520995 38.1401C0.0520995 37.3795 0.466365 36.4379 1.00671 35.8946C6.03193 30.788 11.0932 25.7176 16.1904 20.6835C16.6047 20.267 17.3432 19.9954 17.9556 19.9591C20.2611 19.8686 22.5846 19.9229 24.89 19.9229L24.908 19.941Z" fill="white"/>
<path d="M87.8164 14.114V13.4104L96.1532 0.993362H88.169V0H97.6464V0.682935L89.2888 13.1206H97.5012V14.114H87.8164Z" fill="white"/>
<path d="M100.597 14.114V0H101.696V6.56032L109.598 0H111.132L102.961 6.74658L111.34 14.114H109.784L101.696 6.99492V14.114H100.597Z" fill="white"/>
</svg>
