<svg width="57" height="57" viewBox="0 0 57 57" fill="none" xmlns="http://www.w3.org/2000/svg">
<path id="Vector 278" d="M2.39844 56.1231C3.4178 56.1231 4.24416 55.2967 4.24416 54.2773C4.24416 53.258 3.4178 52.4316 2.39844 52.4316C1.37908 52.4316 0.552719 53.258 0.552719 54.2773C0.552719 55.2967 1.37908 56.1231 2.39844 56.1231ZM55.0014 0.63614L53.0034 4.09686L56.9995 4.09686L55.0014 0.63614ZM2.39844 54.6234L44.6193 54.6234L44.6193 53.9313L2.39844 53.9313L2.39844 54.6234ZM55.3475 43.8952L55.3475 3.75079L54.6554 3.75079L54.6554 43.8952L55.3475 43.8952ZM44.6193 54.6234C50.5443 54.6234 55.3475 49.8202 55.3475 43.8952L54.6554 43.8952C54.6554 49.438 50.162 53.9313 44.6193 53.9313L44.6193 54.6234Z" fill="white"/>
</svg>
