<svg width="53" height="50" viewBox="0 0 53 50" fill="none" xmlns="http://www.w3.org/2000/svg">
<g id="Ellipse 320">
<mask id="path-1-inside-1_1472_4440" fill="white">
<path d="M52.4684 10.4841C49.9076 7.53139 46.7903 5.11202 43.2945 3.36409C39.7987 1.61615 35.9929 0.573883 32.0943 0.296782C28.1957 0.0196832 24.2807 0.51318 20.5728 1.7491C16.865 2.98502 13.4368 4.93916 10.4842 7.49995C7.5315 10.0607 5.11213 13.178 3.3642 16.6738C1.61626 20.1696 0.573992 23.9754 0.296892 27.874C0.0197923 31.7726 0.513292 35.6876 1.74921 39.3955C2.98513 43.1034 4.93927 46.5315 7.50006 49.4842L29.9842 29.9841L52.4684 10.4841Z"/>
</mask>
<path d="M52.4684 10.4841C49.9076 7.53139 46.7903 5.11202 43.2945 3.36409C39.7987 1.61615 35.9929 0.573883 32.0943 0.296782C28.1957 0.0196832 24.2807 0.51318 20.5728 1.7491C16.865 2.98502 13.4368 4.93916 10.4842 7.49995C7.5315 10.0607 5.11213 13.178 3.3642 16.6738C1.61626 20.1696 0.573992 23.9754 0.296892 27.874C0.0197923 31.7726 0.513292 35.6876 1.74921 39.3955C2.98513 43.1034 4.93927 46.5315 7.50006 49.4842L29.9842 29.9841L52.4684 10.4841Z" fill="black" stroke="#B3B3B3" stroke-width="1.38429" mask="url(#path-1-inside-1_1472_4440)"/>
</g>
</svg>
