<svg width="44" height="44" viewBox="0 0 44 44" fill="none" xmlns="http://www.w3.org/2000/svg">
<circle opacity="0.1" cx="22" cy="22" r="22" fill="#AFB2FF"/>
<path d="M32.0652 13.2116C33.1088 11.2735 31.9161 8.73908 31.9161 8.73908C29.2326 8.73908 27.2945 10.5281 27.2945 10.5281C26.2509 9.93173 22.822 9.93173 22.822 9.93173C22.822 9.93173 19.3931 9.93173 18.3495 10.5281C18.3495 10.5281 16.4114 8.73908 13.7279 8.73908C13.7279 8.73908 12.5353 11.2735 13.5788 13.2116C13.5788 13.2116 11.1935 15.4478 12.088 20.2185C12.9286 24.7014 16.8587 25.8836 19.3931 25.8836C19.3931 25.8836 18.3495 26.7781 18.4986 28.269C18.4986 28.269 17.0077 29.1635 15.5169 28.5671C14.0261 27.9708 13.2807 26.48 13.2807 26.48C13.2807 26.48 11.7898 24.5419 10.299 25.2873C10.299 25.2873 9.85175 25.7345 11.4917 26.48C11.4917 26.48 12.6843 28.2689 13.1316 29.3125C13.5788 30.3561 15.9642 31.2506 18.3495 30.6543V34.0832C18.3495 34.0832 18.3495 34.3813 17.7532 34.5304C17.1568 34.6795 17.1568 34.9777 17.455 34.9777H28.189C28.4871 34.9777 28.4871 34.6795 27.8908 34.5304C27.2945 34.3813 27.2945 34.0832 27.2945 34.0832V30.6543C27.2945 30.6543 27.3076 28.8663 27.2945 28.2689C27.2617 26.771 26.2509 25.8836 26.2509 25.8836C28.7853 25.8836 32.7154 24.7014 33.556 20.2184C34.4505 15.4478 32.0652 13.2116 32.0652 13.2116Z" fill="white"/>
</svg>
