<svg width="44" height="44" viewBox="0 0 44 44" fill="none" xmlns="http://www.w3.org/2000/svg">
<circle opacity="0.1" cx="22" cy="22" r="22" fill="#AFB2FF"/>
<path d="M34 26.9001H14.9977C14.7963 26.9001 14.5858 26.955 14.3661 27.0648C14.1465 27.1745 13.9405 27.3392 13.7483 27.5587C13.5561 27.7783 13.4005 28.039 13.2815 28.3408C13.1625 28.6427 13.103 28.9857 13.103 29.3699C13.103 29.7541 13.1533 30.1109 13.254 30.4402C13.3547 30.7695 13.4874 31.0622 13.6522 31.3183C13.8169 31.5745 14.0183 31.7757 14.2563 31.9221C14.4943 32.0684 14.7506 32.1416 15.0252 32.1416H34C33.7803 31.9221 33.5881 31.6751 33.4233 31.4007C33.2769 31.1628 33.1442 30.8793 33.0252 30.5499C32.9062 30.2206 32.8467 29.8456 32.8467 29.4248C32.8467 28.9491 32.9062 28.5558 33.0252 28.2448C33.1442 27.9338 33.2769 27.6776 33.4233 27.4764C33.5881 27.2569 33.7803 27.0648 34 26.9001ZM34 34.3919C34 34.7029 33.7986 34.8584 33.3959 34.8584H13.3227C12.7002 34.8584 12.1785 34.7303 11.7574 34.4742C11.3364 34.2181 10.9931 33.8659 10.7277 33.4177C10.4622 32.9694 10.2746 32.4343 10.1648 31.8123C10.0549 31.1903 10 30.5225 10 29.809V13.8924C10 12.4837 10.3753 11.4638 11.1259 10.8326C11.8764 10.2014 12.9474 9.88584 14.3387 9.88584H15.2723H17.1396H19.6934C20.627 9.88584 21.5835 9.88127 22.5629 9.87212C23.5423 9.86297 24.4989 9.8584 25.4325 9.8584H28.0137H29.9359H30.897C31.4096 9.8584 31.8581 9.96359 32.2426 10.174C32.627 10.3844 32.9474 10.6771 33.2037 11.0521C33.46 11.4272 33.6567 11.8708 33.794 12.3831C33.9313 12.8954 34 13.4442 34 14.0296V25.1438C30.5034 25.1438 27.3547 25.1347 24.5538 25.1164H21.0389C19.8673 25.1164 18.8192 25.1118 17.8947 25.1026C16.9703 25.0935 16.206 25.0889 15.6018 25.0889H14.5858C14.2014 25.0889 13.8261 25.2033 13.46 25.4319C13.0938 25.6606 12.7643 25.9716 12.4714 26.365C12.1785 26.7583 11.9405 27.2157 11.7574 27.7371C11.5744 28.2585 11.4828 28.8028 11.4828 29.3699C11.4828 30.0651 11.5789 30.6917 11.7712 31.2497C11.9634 31.8077 12.2151 32.2788 12.5263 32.663C12.8375 33.0472 13.1808 33.3445 13.5561 33.5549C13.9314 33.7653 14.3021 33.8705 14.6682 33.8705H33.4233C33.5698 33.8705 33.7025 33.9116 33.8215 33.994C33.9405 34.0763 34 34.2089 34 34.3919ZM22.1648 9.8584V20.4786L24.2792 17.5148L26.3661 20.4786V9.8584H22.1648Z" fill="white"/>
</svg>
