<svg width="44" height="44" viewBox="0 0 44 44" fill="none" xmlns="http://www.w3.org/2000/svg">
<circle opacity="0.1" cx="22" cy="22" r="22" fill="#AFB2FF"/>
<path d="M34.05 23.3L33.8875 22.975C33.725 22.8125 33.725 22.8125 33.5625 22.975L30.9625 25.575L29.5 24.1125L31.9375 21.675C32.1 21.5125 32.1 21.35 31.9375 21.35H31.775L31.6125 21.1875C30.9625 20.8625 30.475 20.8625 29.825 20.8625C27.3875 20.8625 25.275 22.975 25.275 25.4125C25.275 25.9 25.4375 26.3875 25.6 26.875L22.8375 29.6375C22.5125 29.9625 22.1875 30.45 22.1875 30.9375C22.1875 31.425 22.35 31.9125 22.8375 32.2375C23.65 33.05 24.7875 33.05 25.6 32.2375L28.3625 29.475C28.85 29.6375 29.3375 29.8 29.825 29.8C32.2625 29.8 34.375 27.6875 34.375 25.25C34.375 24.6 34.2125 23.95 34.05 23.3Z" fill="#73FFFF"/>
<path d="M20.075 27.525C20.075 26.0625 20.4 24.7625 21.05 23.4625C15.0375 23.7875 10.325 28.825 10.325 34.8375H23.975C21.5375 33.2125 20.075 30.6125 20.075 27.525ZM21.7 21.8375H22.1875C23.4875 20.375 25.275 19.2375 27.225 18.9125C27.875 17.9375 28.2 16.6375 28.2 15.5C28.2 11.925 25.275 9 21.7 9C18.125 9 15.2 11.925 15.2 15.5C15.2 18.9125 18.125 21.8375 21.7 21.8375Z" fill="#73FFFF"/>
</svg>
