<svg width="44" height="44" viewBox="0 0 44 44" fill="none" xmlns="http://www.w3.org/2000/svg">
<circle opacity="0.1" cx="22" cy="22" r="22" fill="#AFB2FF"/>
<path d="M20.7837 6.5791C21.1572 6.3635 21.5808 6.25 22.012 6.25C22.4432 6.25 22.8668 6.3635 23.2402 6.5791L34.7528 13.2259C35.1262 13.4415 35.4363 13.7516 35.6519 14.125C35.8675 14.4985 35.981 14.9221 35.981 15.3533V28.6468C35.981 29.078 35.8675 29.5016 35.6519 29.875C35.4363 30.2484 35.1262 30.5585 34.7528 30.7741L23.2402 37.4209C22.8668 37.6365 22.4432 37.75 22.012 37.75C21.5808 37.75 21.1572 37.6365 20.7837 37.4209L9.27122 30.7741C8.89779 30.5585 8.58768 30.2484 8.37208 29.875C8.15648 29.5016 8.04297 29.078 8.04297 28.6468V15.3533C8.04297 14.9221 8.15648 14.4985 8.37208 14.125C8.58768 13.7516 8.89779 13.4415 9.27122 13.2259L20.7837 6.5791ZM10.1485 16.3702V28.6468C10.1485 28.7084 10.1647 28.7689 10.1955 28.8222C10.2263 28.8756 10.2706 28.9199 10.324 28.9507L20.9943 35.1112V22.6477L10.1485 16.3702ZM33.8754 16.3703L23.0998 22.5915V35.0706L33.7 28.9506C33.7516 28.9208 33.7949 28.8783 33.8255 28.8271C33.8562 28.7759 33.8733 28.7178 33.8753 28.6581L33.8754 28.6468L33.8754 16.3703ZM22.1875 8.40259C22.1341 8.37179 22.0736 8.35557 22.012 8.35557C21.9504 8.35557 21.8899 8.37179 21.8365 8.40259L11.1979 14.5448L21.9985 20.7961L32.826 14.5448L22.1875 8.40259Z" fill="#676CF6"/>
</svg>
