<svg width="38" height="38" viewBox="0 0 38 38" fill="none" xmlns="http://www.w3.org/2000/svg">
<circle opacity="0.2" cx="18.875" cy="18.9326" r="18.25" stroke="white" stroke-width="0.45625"/>
<path fill-rule="evenodd" clip-rule="evenodd" d="M32.5625 18.9326C32.5625 26.4921 26.4316 32.6201 18.875 32.6201C11.3184 32.6201 5.1875 26.4921 5.1875 18.9326C5.1875 11.3731 11.3184 5.24512 18.875 5.24512C26.4316 5.24512 32.5625 11.3731 32.5625 18.9326ZM11.6834 13.9333C11.8488 14.0878 11.9343 14.3142 11.9115 14.5435V22.7988C11.9628 23.0965 11.8716 23.401 11.6662 23.6183L9.75 25.9982V26.3119H15.1851V25.9982L13.2688 23.6183C13.0635 23.401 12.9666 23.0987 13.0065 22.7988V15.659L17.7743 26.3119H18.3275L22.428 15.659V24.1498C22.428 24.3768 22.428 24.4202 22.2855 24.5684L20.8084 26.033V26.3467H27.9658V26.033L26.5457 24.6032C26.4198 24.5032 26.3568 24.3437 26.3803 24.1846V13.6806C26.3568 13.5216 26.4198 13.362 26.5457 13.262L28 11.8322V11.5186H22.9584L19.3598 20.6977L15.2706 11.5186H9.97813V11.8322L11.6834 13.9333Z" fill="white"/>
</svg>
