<svg width="164" height="52" viewBox="0 0 164 52" fill="none" xmlns="http://www.w3.org/2000/svg">
<ellipse cx="8.10842" cy="8.13092" rx="8.10842" ry="8.13092" transform="matrix(0.990096 -0.14039 0.139935 0.990161 6.73828 15.9678)" fill="white"/>
<path d="M35.0673 9.38079C35.8464 10.1646 36.6125 10.9576 37.296 11.8316C41.9196 17.7455 42.7198 26.0583 39.2899 32.7291C37.0227 37.139 33.587 40.2907 28.9875 42.0987C24.9187 43.6991 20.7426 43.8807 16.5168 42.6965C16.4468 42.6766 16.3804 42.6498 16.2998 42.5788C21.6209 42.5723 26.302 40.8788 30.157 37.1991C34.0151 33.518 36.0772 28.9628 36.2362 23.6011C36.3667 19.2274 35.1479 15.2295 32.6 11.6639C30.0608 8.10706 26.6683 5.69955 22.5222 4.34083C22.6058 4.18879 22.7139 4.2444 22.7994 4.24928C24.9906 4.35494 27.1015 4.82505 29.1354 5.65051C30.2768 6.11414 31.3604 6.68409 32.398 7.34806C32.4488 7.38008 32.5096 7.3967 32.566 7.42149L35.0651 9.38105L35.0673 9.38079Z" fill="white"/>
<g clip-path="url(#clip0_1432_1878)">
<path d="M71.0755 10.1651C74.4188 10.1651 77.7666 10.1968 81.1099 10.147C82.2063 10.1289 82.5357 10.5542 82.5357 11.6085C82.5357 15.011 80.3158 17.2054 77.0718 17.0878C72.7178 16.9339 68.3548 17.0425 63.9963 17.0561C63.2112 17.0561 62.4216 17.1149 61.6366 17.1963C60.4815 17.3185 59.8228 18.0741 59.8138 19.2324C59.8047 20.3545 60.4951 21.2504 61.5599 21.3952C62.187 21.4811 62.8367 21.4495 63.4729 21.454C67.3441 21.4585 71.2153 21.5626 75.082 21.4359C81.128 21.2368 84.1554 26.2184 83.8622 31.0325C83.5869 35.539 80.9791 38.7198 77.0582 39.4935C76.6206 39.5795 76.1649 39.6202 75.7182 39.6202C69.2166 39.6292 62.7149 39.6292 56.2133 39.6247C54.8011 39.6247 54.7514 39.5614 54.7424 38.1678C54.7153 34.6567 56.5607 32.7654 60.0439 32.7609C65.0024 32.7519 69.9655 32.7745 74.9241 32.7473C76.8101 32.7383 77.7621 31.3809 77.1891 29.6525C76.8507 28.639 76.1333 28.3042 75.1046 28.3087C70.7822 28.3313 66.4598 28.3268 62.1419 28.3178C57.9864 28.3042 55.0673 26.2003 53.8175 22.3408C52.518 18.323 53.7588 13.9024 56.8449 11.6356C58.194 10.6447 59.7145 10.1742 61.3794 10.1697C64.6099 10.1606 67.8449 10.1697 71.0755 10.1697V10.1651Z" fill="white"/>
<path d="M109.343 39.6209C106.903 39.6209 104.457 39.5937 102.016 39.6344C101.087 39.648 100.771 39.2725 100.744 38.3675C100.64 34.8565 102.697 32.6485 106.212 32.6168C109.33 32.5896 112.452 32.5037 115.57 32.6213C120.321 32.8023 123.353 29.1012 123.457 24.8345C123.565 20.4864 120.145 17.111 115.629 17.0613C111.081 17.0115 106.533 17.0251 101.989 17.0748C101.046 17.0839 100.78 16.7988 100.739 15.8713C100.595 12.5231 102.743 9.97124 106.298 10.1386C109.483 10.288 112.687 10.1658 115.881 10.1748C122.974 10.1884 128.984 15.6179 129.823 22.7577C130.604 29.3908 127.396 35.5125 121.656 38.3042C119.874 39.1684 117.984 39.6209 115.998 39.6254C113.783 39.6299 111.563 39.6254 109.348 39.6254L109.343 39.6209Z" fill="white"/>
<path d="M150.706 10.1745C154.311 10.1745 157.92 10.1745 161.525 10.1745C162.897 10.1745 162.947 10.265 162.969 11.6676C163.023 14.8303 160.921 17.1831 157.582 17.079C152.705 16.9297 147.814 17.07 142.932 17.0202C141.853 17.0112 141.479 17.3414 141.511 18.4364C141.614 21.9837 141.05 21.4317 144.461 21.4588C148.517 21.4905 152.578 21.495 156.634 21.4498C157.704 21.4362 158.074 21.7801 158.069 22.875C158.051 26.3635 156.21 28.3 152.75 28.309C148.617 28.3226 144.484 28.3226 140.351 28.309C137.008 28.2955 135.027 26.3047 135 22.9565C134.982 20.4679 134.982 17.9839 135 15.4954C135.027 12.1156 136.981 10.1745 140.333 10.17C143.789 10.1655 147.245 10.17 150.701 10.17L150.706 10.1745Z" fill="white"/>
<path d="M95.6792 25.019C95.6792 29.3491 95.6792 33.6791 95.6792 38.0091C95.6792 39.5384 95.5755 39.6334 94.1091 39.6334C91.1583 39.6334 88.9926 37.62 88.9701 34.6519C88.9159 28.141 88.9114 21.6256 88.9701 15.1147C88.9971 12.1059 91.1177 10.1648 94.1181 10.1739C95.5529 10.1739 95.6747 10.2824 95.6792 11.6986C95.6883 14.4858 95.6792 17.2684 95.6792 20.0556C95.6792 21.7116 95.6792 23.3676 95.6792 25.0236V25.019Z" fill="white"/>
<path d="M149.041 32.681C153.215 32.681 157.384 32.7127 161.557 32.6629C162.635 32.6493 163.001 33.0113 162.987 34.0927C162.951 37.5133 161.007 39.5267 157.618 39.5267C151.87 39.5267 146.117 39.5312 140.369 39.5267C136.936 39.5267 134.96 37.4409 134.987 33.9705C134.996 32.9932 135.32 32.6493 136.304 32.6584C140.55 32.6991 144.795 32.6765 149.046 32.6765L149.041 32.681Z" fill="white"/>
</g>
<defs>
<clipPath id="clip0_1432_1878">
<rect width="110.695" height="29.5048" fill="white" transform="translate(53.3086 10.1289)"/>
</clipPath>
</defs>
</svg>
