<svg width="38" height="38" viewBox="0 0 38 38" fill="none" xmlns="http://www.w3.org/2000/svg">
<circle opacity="0.2" cx="19" cy="18.9326" r="18.25" stroke="white" stroke-width="0.45625"/>
<path fill-rule="evenodd" clip-rule="evenodd" d="M32.6361 11.2485C31.654 11.6879 30.6135 11.9781 29.5483 12.1094C30.6698 11.4243 31.5096 10.3498 31.9125 9.08434C30.873 9.70091 29.721 10.1497 28.4945 10.3997C26.8309 8.59157 24.1793 8.14564 22.0313 9.31274C19.8832 10.4798 18.7752 12.9685 19.3304 15.3789C14.8598 15.1645 10.8975 12.9826 8.24573 9.68425C7.76347 10.5172 7.51193 11.4673 7.51776 12.4338C7.51776 14.3335 8.46872 16.0033 9.90936 16.9842C9.05553 16.9566 8.22056 16.722 7.47404 16.2999V16.3677C7.47304 18.9706 9.27713 21.2136 11.7872 21.7302C10.9984 21.945 10.1721 21.9773 9.36939 21.8246C10.078 24.0517 12.0992 25.5764 14.4018 25.6207C12.4993 27.1381 10.1503 27.9617 7.732 27.9592C7.30571 27.9592 6.88051 27.9337 6.45312 27.8848C8.91874 29.4894 11.7856 30.3411 14.7133 30.3389C24.6098 30.3389 30.015 22.0112 30.015 14.8012C30.015 14.5691 30.015 14.3346 29.9986 14.1013C31.0545 13.3291 31.9652 12.3703 32.6875 11.2707L32.6361 11.2485Z" fill="white"/>
</svg>
