<svg width="38" height="38" viewBox="0 0 38 38" fill="none" xmlns="http://www.w3.org/2000/svg">
<path opacity="0.2" fill-rule="evenodd" clip-rule="evenodd" d="M19.2496 0.910352C9.2964 0.910352 1.22773 8.97902 1.22773 18.9322C1.22773 28.8854 9.2964 36.9541 19.2496 36.9541C29.2028 36.9541 37.2715 28.8854 37.2715 18.9322C37.2715 8.97902 29.2028 0.910352 19.2496 0.910352ZM0.771484 18.9322C0.771484 8.72704 9.04442 0.454102 19.2496 0.454102C29.4548 0.454102 37.7277 8.72704 37.7277 18.9322C37.7277 29.1374 29.4548 37.4104 19.2496 37.4104C9.04442 37.4104 0.771484 29.1374 0.771484 18.9322Z" fill="white"/>
<path fill-rule="evenodd" clip-rule="evenodd" d="M17.6608 26.2377C18.1742 26.2377 18.4823 26.6554 18.4823 27.0731C18.4823 27.5952 18.0715 27.9084 17.6608 27.9084C17.1473 27.9084 16.8392 27.4907 16.8392 27.0731C16.8392 26.6554 17.1473 26.2377 17.6608 26.2377ZM31.1148 20.9123C30.6013 20.9123 30.2932 20.4946 30.2932 20.0769C30.2932 19.6592 30.704 19.2416 31.1148 19.2416C31.6283 19.2416 31.9363 19.6592 31.9363 20.0769C31.9363 20.4946 31.5256 20.9123 31.1148 20.9123ZM31.1146 17.3616C29.6768 17.3616 28.4445 18.6146 28.4445 20.0765C28.4445 20.3898 28.4445 20.703 28.5472 20.9119L19.8181 25.6108C19.3046 24.8799 18.483 24.4622 17.6615 24.4622C16.6345 24.4622 15.7102 25.0887 15.2995 25.9241L7.49458 21.7472C6.67301 21.3296 6.05684 19.8677 6.15953 18.6146C6.15953 17.9881 6.46762 17.466 6.77571 17.2572C6.9811 17.1527 7.28918 17.1527 7.49458 17.2572H7.59727C9.65119 18.4058 16.5318 21.9561 16.7372 22.1649C17.148 22.3738 17.4561 22.4782 18.1749 22.0605L32.2442 14.6466C32.4496 14.5422 32.655 14.3334 32.655 14.0201C32.655 13.6024 32.2442 13.3936 32.2442 13.3936C31.4227 12.9759 30.1903 12.4538 29.0607 11.8273C26.4933 10.5742 23.6178 9.21678 22.2828 8.59025C21.1531 7.96373 20.3315 8.48583 20.1261 8.59025L19.8181 8.69467C14.0671 11.6185 6.36492 15.482 5.95414 15.6908C5.13257 16.213 4.72179 17.1527 4.6191 18.3014C4.5164 20.1809 5.44066 22.1649 6.8784 22.8959L15.1968 27.2815C15.4021 28.639 16.5318 29.5788 17.7641 29.5788C19.2019 29.5788 20.4342 28.4302 20.4342 26.9683L29.5742 21.9561C30.0876 22.3738 30.6011 22.4782 31.2173 22.4782C32.655 22.4782 33.8874 21.2251 33.8874 19.7632C33.682 18.5102 32.5523 17.3616 31.1146 17.3616" fill="white"/>
</svg>
