<svg width="34" height="34" viewBox="0 0 34 34" fill="none" xmlns="http://www.w3.org/2000/svg">
<circle opacity="0.2" cx="16.9459" cy="16.9459" r="15.9459" stroke="white" stroke-width="0.398649"/>
<path d="M24.6252 9.43577C24.6191 9.42375 24.609 9.41433 24.5967 9.40921C23.1703 8.74547 21.665 8.27217 20.1186 8.00116C20.1045 7.99851 20.09 8.00042 20.0771 8.00662C20.0642 8.01282 20.0535 8.02299 20.0466 8.03569C19.8417 8.41299 19.6556 8.80054 19.4892 9.19686C17.8222 8.94022 16.1266 8.94022 14.4596 9.19686C14.292 8.79953 14.103 8.41189 13.8933 8.03569C13.8861 8.02327 13.8754 8.01333 13.8626 8.00717C13.8497 8.00101 13.8354 7.99892 13.8213 8.00116C12.2747 8.2716 10.7694 8.74494 9.34319 9.40924C9.33098 9.41449 9.32068 9.42346 9.31371 9.4349C6.46159 13.7547 5.68029 17.9682 6.06357 22.1296C6.06465 22.1398 6.06774 22.1496 6.07265 22.1586C6.07757 22.1676 6.08422 22.1754 6.09219 22.1817C7.75295 23.4289 9.61053 24.3808 11.5857 24.997C11.5996 25.0012 11.6144 25.001 11.6282 24.9964C11.642 24.9918 11.6541 24.9831 11.6629 24.9713C12.0871 24.3859 12.463 23.766 12.7867 23.1179C12.7911 23.109 12.7937 23.0993 12.7941 23.0893C12.7946 23.0794 12.793 23.0694 12.7894 23.0601C12.7858 23.0509 12.7803 23.0425 12.7732 23.0355C12.7662 23.0285 12.7578 23.0231 12.7486 23.0197C12.1558 22.7897 11.582 22.5124 11.0324 22.1905C11.0224 22.1845 11.014 22.1762 11.008 22.1661C11.0019 22.1561 10.9984 22.1448 10.9977 22.133C10.9971 22.1213 10.9992 22.1096 11.0041 22.0989C11.0089 22.0883 11.0163 22.079 11.0255 22.0719C11.1411 21.9842 11.2548 21.8939 11.3663 21.801C11.3761 21.7929 11.3879 21.7876 11.4005 21.7859C11.413 21.7842 11.4258 21.7861 11.4374 21.7913C15.0378 23.4578 18.9357 23.4578 22.4935 21.7913C22.5051 21.7857 22.5181 21.7836 22.5308 21.7852C22.5435 21.7867 22.5556 21.7919 22.5655 21.8002C22.6772 21.8936 22.7911 21.9842 22.9072 22.0719C22.9165 22.0789 22.9239 22.0881 22.9288 22.0988C22.9337 22.1094 22.936 22.1211 22.9354 22.1328C22.9348 22.1445 22.9314 22.1559 22.9254 22.166C22.9194 22.176 22.9111 22.1844 22.9011 22.1905C22.3528 22.5151 21.7785 22.7922 21.1842 23.0188C21.1749 23.0224 21.1666 23.0279 21.1596 23.035C21.1526 23.0421 21.1471 23.0505 21.1436 23.0599C21.1401 23.0692 21.1385 23.0792 21.1391 23.0892C21.1396 23.0992 21.1422 23.109 21.1468 23.1179C21.4759 23.7624 21.8512 24.3815 22.2697 24.9703C22.2782 24.9824 22.2902 24.9914 22.3041 24.9962C22.318 25.001 22.3329 25.0012 22.3469 24.9968C24.3256 24.3828 26.1864 23.4308 27.8493 22.1817C27.8574 22.1758 27.8641 22.1681 27.869 22.1592C27.874 22.1504 27.877 22.1406 27.8779 22.1304C28.3367 17.3195 27.1097 13.1405 24.6252 9.43577ZM13.3244 19.5957C12.2404 19.5957 11.3472 18.5868 11.3472 17.3478C11.3472 16.1088 12.2231 15.0998 13.3244 15.0998C14.4343 15.0998 15.3188 16.1175 15.3015 17.3477C15.3015 18.5868 14.4256 19.5957 13.3244 19.5957ZM20.6345 19.5957C19.5506 19.5957 18.6574 18.5868 18.6574 17.3478C18.6574 16.1088 19.5333 15.0998 20.6345 15.0998C21.7445 15.0998 22.629 16.1175 22.6117 17.3477C22.6117 18.5868 21.7445 19.5957 20.6345 19.5957Z" fill="#F3F3F3"/>
</svg>
