<svg width="34" height="34" viewBox="0 0 34 34" fill="none" xmlns="http://www.w3.org/2000/svg">
<circle opacity="0.2" cx="16.9459" cy="16.9459" r="15.9459" stroke="white" stroke-width="0.398649"/>
<path fill-rule="evenodd" clip-rule="evenodd" d="M16.9458 5.47997C10.3413 5.47997 4.98633 10.834 4.98633 17.4394C4.98633 22.7236 8.41295 27.2065 13.1647 28.7875C13.7622 28.898 13.9822 28.5282 13.9822 28.212C13.9822 27.9269 13.9712 26.9845 13.966 25.9857C10.6388 26.709 9.93659 24.5744 9.93659 24.5744C9.39267 23.1924 8.60861 22.8245 8.60861 22.8245C7.52365 22.0821 8.69041 22.0974 8.69041 22.0974C9.89114 22.1816 10.5236 23.3297 10.5236 23.3297C11.5903 25.1581 13.3211 24.6295 14.0042 24.3238C14.1114 23.5507 14.4214 23.0231 14.7634 22.7246C12.107 22.4222 9.3147 21.3966 9.3147 16.8142C9.3147 15.5087 9.78207 14.4414 10.547 13.6043C10.4226 13.3029 10.0131 12.0869 10.6628 10.4393C10.6628 10.4393 11.6674 10.1183 13.9526 11.6654C14.9065 11.4004 15.9297 11.2674 16.9463 11.2626C17.9623 11.2674 18.9861 11.3999 19.9419 11.6654C22.2247 10.1178 23.2274 10.4393 23.2274 10.4393C23.8784 12.0869 23.469 13.3029 23.3451 13.6043C24.1119 14.4419 24.5759 15.5087 24.5759 16.8142C24.5759 21.4076 21.7779 22.4189 19.1148 22.715C19.5439 23.0862 19.9261 23.8138 19.9261 24.9294C19.9261 26.5296 19.9122 27.8174 19.9122 28.2116C19.9122 28.5297 20.1275 28.9028 20.7336 28.7856C25.4829 27.2027 28.9052 22.7212 28.9052 17.439C28.9052 10.8335 23.5508 5.47949 16.9458 5.47949V5.47997Z" fill="#F3F3F3"/>
</svg>
