<svg width="34" height="34" viewBox="0 0 34 34" fill="none" xmlns="http://www.w3.org/2000/svg">
<circle opacity="0.2" cx="16.9459" cy="16.9459" r="15.9459" stroke="white" stroke-width="0.398649"/>
<path fill-rule="evenodd" clip-rule="evenodd" d="M28.8618 10.2311C28.0036 10.6151 27.0946 10.8686 26.1638 10.9834C27.1437 10.3847 27.8775 9.4459 28.2295 8.34024C27.3213 8.87897 26.3146 9.27113 25.2431 9.48953C23.7895 7.90968 21.4726 7.52005 19.5958 8.53981C17.7189 9.55956 16.7508 11.7341 17.2359 13.8401C13.3297 13.6528 9.86763 11.7464 7.55067 8.86441C7.12929 9.59225 6.9095 10.4224 6.9146 11.2669C6.9146 12.9267 7.7455 14.3857 9.00426 15.2428C8.25823 15.2187 7.52867 15.0136 6.8764 14.6448V14.7041C6.87552 16.9784 8.45185 18.9382 10.645 19.3896C9.95578 19.5773 9.23387 19.6055 8.53246 19.4721C9.15164 21.418 10.9176 22.7502 12.9295 22.7889C11.2673 24.1147 9.21482 24.8343 7.10179 24.8322C6.72932 24.8322 6.3578 24.8099 5.98438 24.7671C8.1387 26.1691 10.6436 26.9133 13.2017 26.9114C21.8488 26.9114 26.5716 19.6351 26.5716 13.3354C26.5716 13.1325 26.5716 12.9277 26.5572 12.7239C27.4798 12.0491 28.2756 11.2113 28.9067 10.2506L28.8618 10.2311Z" fill="#F3F3F3"/>
</svg>
