<svg width="38" height="38" viewBox="0 0 38 38" fill="none" xmlns="http://www.w3.org/2000/svg">
<circle opacity="0.2" cx="19.125" cy="18.9326" r="18.25" stroke="white" stroke-width="0.45625"/>
<path d="M28.012 10.5139C28.0049 10.5004 27.9932 10.4898 27.9788 10.484C26.3223 9.7358 24.5742 9.2023 22.7782 8.89682C22.7619 8.89383 22.745 8.89598 22.73 8.90297C22.715 8.90996 22.7026 8.92143 22.6946 8.93574C22.4566 9.36103 22.2405 9.79788 22.0472 10.2446C20.1112 9.95533 18.142 9.95533 16.206 10.2446C16.0114 9.79674 15.7919 9.35979 15.5484 8.93574C15.54 8.92174 15.5276 8.91054 15.5127 8.90359C15.4978 8.89665 15.4811 8.89429 15.4648 8.89682C13.6686 9.20166 11.9204 9.7352 10.264 10.484C10.2498 10.4899 10.2379 10.5 10.2298 10.5129C6.91744 15.3822 6.01007 20.1317 6.45519 24.8224C6.45645 24.8339 6.46003 24.8451 6.46574 24.8552C6.47145 24.8653 6.47917 24.8741 6.48843 24.8813C8.41718 26.287 10.5745 27.3601 12.8684 28.0546C12.8845 28.0593 12.9018 28.0591 12.9178 28.054C12.9338 28.0488 12.9478 28.0389 12.958 28.0257C13.4507 27.3658 13.8872 26.667 14.2632 25.9365C14.2683 25.9265 14.2713 25.9155 14.2718 25.9043C14.2724 25.893 14.2705 25.8818 14.2663 25.8714C14.2621 25.8609 14.2557 25.8515 14.2476 25.8436C14.2394 25.8357 14.2296 25.8297 14.2189 25.8258C13.5305 25.5665 12.8641 25.254 12.2258 24.8911C12.2142 24.8844 12.2045 24.875 12.1975 24.8637C12.1904 24.8524 12.1864 24.8396 12.1856 24.8263C12.1848 24.8131 12.1873 24.7999 12.1929 24.7879C12.1985 24.7759 12.2071 24.7654 12.2178 24.7574C12.3521 24.6586 12.4841 24.5568 12.6136 24.4521C12.625 24.4429 12.6387 24.437 12.6533 24.4351C12.6679 24.4331 12.6827 24.4352 12.6962 24.4412C16.8775 26.3196 21.4045 26.3196 25.5364 24.4412C25.5498 24.4349 25.5648 24.4324 25.5796 24.4342C25.5944 24.436 25.6084 24.4418 25.62 24.4511C25.7497 24.5564 25.882 24.6585 26.0168 24.7574C26.0276 24.7653 26.0362 24.7757 26.0419 24.7877C26.0476 24.7997 26.0502 24.8129 26.0495 24.8261C26.0488 24.8393 26.0448 24.8521 26.0379 24.8635C26.031 24.8748 26.0213 24.8843 26.0097 24.8911C25.373 25.257 24.7059 25.5694 24.0157 25.8248C24.005 25.8289 23.9953 25.835 23.9871 25.843C23.979 25.851 23.9727 25.8606 23.9686 25.8711C23.9645 25.8817 23.9627 25.8929 23.9633 25.9042C23.964 25.9155 23.967 25.9265 23.9723 25.9365C24.3545 26.663 24.7904 27.3608 25.2764 28.0245C25.2863 28.0381 25.3003 28.0483 25.3164 28.0537C25.3324 28.0591 25.3498 28.0593 25.3661 28.0545C27.664 27.3623 29.8251 26.2892 31.7563 24.8813C31.7657 24.8745 31.7735 24.8658 31.7793 24.8559C31.785 24.8459 31.7885 24.8348 31.7895 24.8234C32.3224 19.4005 30.8974 14.6899 28.012 10.5139ZM14.8876 21.9663C13.6287 21.9663 12.5914 20.8291 12.5914 19.4324C12.5914 18.0358 13.6086 16.8985 14.8876 16.8985C16.1767 16.8985 17.2039 18.0457 17.1838 19.4323C17.1838 20.8291 16.1666 21.9663 14.8876 21.9663ZM23.3774 21.9663C22.1185 21.9663 21.0812 20.8291 21.0812 19.4324C21.0812 18.0358 22.0984 16.8985 23.3774 16.8985C24.6665 16.8985 25.6937 18.0457 25.6736 19.4323C25.6736 20.8291 24.6665 21.9663 23.3774 21.9663Z" fill="#F3F3F3"/>
</svg>
