<svg width="38" height="38" viewBox="0 0 38 38" fill="none" xmlns="http://www.w3.org/2000/svg">
<circle opacity="0.2" cx="18.75" cy="18.9326" r="18.25" stroke="white" stroke-width="0.45625"/>
<path fill-rule="evenodd" clip-rule="evenodd" d="M18.75 5.81012C11.1912 5.81012 5.0625 11.9377 5.0625 19.4976C5.0625 25.5453 8.98424 30.6759 14.4226 32.4854C15.1064 32.6119 15.3582 32.1887 15.3582 31.8268C15.3582 31.5005 15.3456 30.4219 15.3396 29.2787C11.5318 30.1065 10.728 27.6636 10.728 27.6636C10.1055 26.0819 9.20817 25.6608 9.20817 25.6608C7.96644 24.8111 9.30179 24.8286 9.30179 24.8286C10.676 24.925 11.3998 26.239 11.3998 26.239C12.6207 28.3315 14.6016 27.7265 15.3834 27.3767C15.5061 26.4919 15.8608 25.888 16.2523 25.5464C13.212 25.2004 10.0163 24.0265 10.0163 18.782C10.0163 17.2879 10.5512 16.0664 11.4266 15.1083C11.2843 14.7634 10.8156 13.3716 11.5591 11.4861C11.5591 11.4861 12.7089 11.1187 15.3243 12.8893C16.416 12.586 17.5871 12.4338 18.7505 12.4283C19.9134 12.4338 21.0851 12.5854 22.179 12.8893C24.7917 11.1181 25.9392 11.4861 25.9392 11.4861C26.6844 13.3716 26.2157 14.7634 26.0739 15.1083C26.9515 16.067 27.4826 17.2879 27.4826 18.782C27.4826 24.0391 24.2803 25.1965 21.2324 25.5354C21.7235 25.9603 22.1609 26.7931 22.1609 28.0698C22.1609 29.9012 22.145 31.3751 22.145 31.8262C22.145 32.1903 22.3914 32.6174 23.0851 32.4832C28.5207 30.6715 32.4375 25.5426 32.4375 19.4971C32.4375 11.9372 26.3093 5.80957 18.75 5.80957V5.81012Z" fill="white"/>
</svg>
