<svg width="34" height="34" viewBox="0 0 34 34" fill="none" xmlns="http://www.w3.org/2000/svg">
<path d="M30.3346 4.48907H12.624C11.7375 4.48907 11.1498 5.08009 11.1498 5.96329V7.43751C11.1498 8.32404 11.7408 8.91173 12.624 8.91173H30.3312C31.2178 8.91173 31.8055 8.32072 31.8055 7.43751V5.96329C31.8088 5.08009 31.2178 4.48907 30.3346 4.48907ZM5.24629 4.48907H3.77207C3.03496 4.48907 2.29785 5.22618 2.29785 5.96329V7.43751C2.29785 8.17462 3.03496 8.91173 3.77207 8.91173H5.24629C5.9834 8.91173 6.72051 8.17462 6.72051 7.43751V5.96329C6.72383 5.22618 5.98672 4.48907 5.24629 4.48907ZM5.24629 14.8186H3.77207C3.03496 14.8186 2.29785 15.5557 2.29785 16.2928V17.767C2.29785 18.5041 3.03496 19.2412 3.77207 19.2412H5.24629C5.9834 19.2412 6.72051 18.5041 6.72051 17.767V16.2928C6.72383 15.5557 5.98672 14.8186 5.24629 14.8186ZM30.3346 14.8186H12.624C11.7375 14.8186 11.1498 15.4096 11.1498 16.2928V17.767C11.1498 18.6535 11.7408 19.2412 12.624 19.2412H30.3312C31.2178 19.2412 31.8055 18.6502 31.8055 17.767V16.2928C31.8088 15.4096 31.2178 14.8186 30.3346 14.8186ZM5.24629 25.1481H3.77207C3.03496 25.1481 2.29785 25.8852 2.29785 26.6223V28.0965C2.29785 28.8336 3.03496 29.5707 3.77207 29.5707H5.24629C5.9834 29.5707 6.72051 28.8336 6.72051 28.0965V26.6223C6.72383 25.8852 5.98672 25.1481 5.24629 25.1481ZM30.3346 25.1481H12.624C11.7375 25.1481 11.1498 25.7391 11.1498 26.6223V28.0965C11.1498 28.983 11.7408 29.5707 12.624 29.5707H30.3312C31.2178 29.5707 31.8055 28.9797 31.8055 28.0965V26.6223C31.8088 25.7391 31.2178 25.1481 30.3346 25.1481Z" fill="white"/>
</svg>
