<svg width="120" height="38" viewBox="0 0 120 38" fill="none" xmlns="http://www.w3.org/2000/svg">
<ellipse cx="5.88088" cy="5.8972" rx="5.88088" ry="5.8972" transform="matrix(0.990096 -0.14039 0.139935 0.990161 5.87939 11.5898)" fill="white"/>
<path d="M26.4264 6.81205C26.9915 7.38053 27.5471 7.95569 28.0428 8.58959C31.3963 12.8788 31.9766 18.908 29.489 23.7461C27.8446 26.9445 25.3528 29.2304 22.0169 30.5417C19.0659 31.7024 16.037 31.8341 12.9721 30.9753C12.9213 30.9608 12.8731 30.9414 12.8147 30.8899C16.674 30.8852 20.0691 29.6569 22.8651 26.9881C25.6633 24.3183 27.1589 21.0145 27.2742 17.1258C27.3688 13.9536 26.4849 11.054 24.6369 8.46794C22.7953 5.88824 20.3348 4.14213 17.3277 3.15667C17.3883 3.0464 17.4667 3.08673 17.5287 3.09027C19.118 3.1669 20.649 3.50787 22.1241 4.10655C22.9519 4.44282 23.7379 4.85619 24.4904 5.33775C24.5272 5.36098 24.5714 5.37303 24.6123 5.39101L26.4248 6.81224L26.4264 6.81205Z" fill="white"/>
<g clip-path="url(#clip0_463_37)">
<path d="M52.5392 7.38169C54.9641 7.38169 57.3922 7.40466 59.817 7.36856C60.6122 7.35544 60.8511 7.66391 60.8511 8.42852C60.8511 10.8963 59.2411 12.4878 56.8882 12.4025C53.7304 12.291 50.566 12.3697 47.4048 12.3796C46.8355 12.3796 46.2628 12.4222 45.6934 12.4813C44.8557 12.5699 44.3779 13.1179 44.3713 13.958C44.3648 14.7718 44.8655 15.4216 45.6378 15.5266C46.0926 15.589 46.5638 15.566 47.0253 15.5693C49.833 15.5725 52.6407 15.648 55.4451 15.5561C59.8301 15.4117 62.0259 19.0248 61.8132 22.5164C61.6136 25.7849 59.7221 28.0918 56.8784 28.653C56.561 28.7153 56.2305 28.7449 55.9065 28.7449C51.191 28.7514 46.4755 28.7514 41.76 28.7481C40.7357 28.7481 40.6997 28.7022 40.6932 27.6915C40.6735 25.145 42.012 23.7732 44.5382 23.77C48.1346 23.7634 51.7342 23.7798 55.3306 23.7601C56.6984 23.7536 57.3889 22.7691 56.9733 21.5155C56.7279 20.7804 56.2076 20.5376 55.4615 20.5409C52.3265 20.5573 49.1916 20.554 46.0599 20.5474C43.046 20.5376 40.9288 19.0117 40.0223 16.2125C39.0799 13.2984 39.9798 10.0923 42.2181 8.44821C43.1966 7.72954 44.2994 7.38825 45.5069 7.38497C47.8499 7.37841 50.1962 7.38497 52.5392 7.38497V7.38169Z" fill="white"/>
<path d="M80.2942 28.745C78.5239 28.745 76.7502 28.7253 74.9799 28.7548C74.3058 28.7646 74.0767 28.4923 74.0571 27.836C73.9818 25.2894 75.474 23.688 78.0232 23.665C80.2844 23.6454 82.5489 23.583 84.8101 23.6683C88.256 23.7996 90.455 21.1153 90.5303 18.0207C90.6088 14.8671 88.1283 12.419 84.8527 12.3829C81.5541 12.3468 78.2555 12.3567 74.9602 12.3928C74.2763 12.3993 74.0832 12.1926 74.0538 11.5199C73.9491 9.09149 75.5067 7.24067 78.0854 7.36209C80.3957 7.47039 82.7191 7.38178 85.0359 7.38835C90.1801 7.39819 94.5389 11.3361 95.1476 16.5145C95.7137 21.3253 93.3871 25.7653 89.2246 27.79C87.932 28.4168 86.5609 28.745 85.121 28.7482C83.5143 28.7515 81.9043 28.7482 80.2975 28.7482L80.2942 28.745Z" fill="white"/>
<path d="M110.294 7.38853C112.909 7.38853 115.527 7.38853 118.141 7.38853C119.136 7.38853 119.172 7.45416 119.188 8.47145C119.228 10.7653 117.703 12.4717 115.281 12.3962C111.744 12.2879 108.196 12.3897 104.656 12.3536C103.874 12.347 103.602 12.5866 103.625 13.3807C103.7 15.9535 103.291 15.5531 105.765 15.5728C108.707 15.5958 111.652 15.5991 114.594 15.5663C115.37 15.5564 115.638 15.8058 115.635 16.6C115.622 19.1301 114.286 20.5346 111.776 20.5412C108.779 20.551 105.781 20.551 102.784 20.5412C100.359 20.5313 98.9225 19.0874 98.9029 16.659C98.8898 14.8542 98.8898 13.0526 98.9029 11.2477C98.9225 8.79633 100.339 7.38853 102.771 7.38525C105.277 7.38197 107.784 7.38525 110.291 7.38525L110.294 7.38853Z" fill="white"/>
<path d="M70.3845 18.1546C70.3845 21.2951 70.3845 24.4356 70.3845 27.5761C70.3845 28.6853 70.3093 28.7542 69.2457 28.7542C67.1056 28.7542 65.5348 27.2939 65.5185 25.1411C65.4792 20.4189 65.4759 15.6934 65.5185 10.9712C65.5381 8.78896 67.0761 7.38115 69.2523 7.38772C70.2929 7.38772 70.3813 7.46648 70.3845 8.49362C70.3911 10.5151 70.3845 12.5333 70.3845 14.5547C70.3845 15.7558 70.3845 16.9568 70.3845 18.1579V18.1546Z" fill="white"/>
<path d="M109.086 23.7118C112.113 23.7118 115.137 23.7348 118.164 23.6987C118.946 23.6889 119.211 23.9514 119.201 24.7357C119.175 27.2166 117.765 28.6769 115.307 28.6769C111.138 28.6769 106.966 28.6802 102.797 28.6769C100.306 28.6769 98.8731 27.1641 98.8928 24.6471C98.8993 23.9383 99.1349 23.6889 99.8483 23.6954C102.928 23.725 106.007 23.7086 109.09 23.7086L109.086 23.7118Z" fill="white"/>
</g>
<defs>
<clipPath id="clip0_463_37">
<rect width="80.2848" height="21.3993" fill="white" transform="translate(39.6523 7.35547)"/>
</clipPath>
</defs>
</svg>
