<svg width="119" height="38" viewBox="0 0 119 38" fill="none" xmlns="http://www.w3.org/2000/svg">
<ellipse cx="5.88088" cy="5.8972" rx="5.88088" ry="5.8972" transform="matrix(0.990096 -0.14039 0.139935 0.990161 4.88672 11.5898)" fill="white"/>
<path d="M25.4332 6.81205C25.9983 7.38053 26.5539 7.95569 27.0497 8.58959C30.4031 12.8788 30.9834 18.908 28.4958 23.7461C26.8515 26.9445 24.3596 29.2304 21.0237 30.5417C18.0727 31.7024 15.0438 31.8341 11.9789 30.9753C11.9282 30.9608 11.88 30.9414 11.8215 30.8899C15.6808 30.8852 19.0759 29.6569 21.8719 26.9881C24.6701 24.3183 26.1657 21.0145 26.281 17.1258C26.3756 13.9536 25.4917 11.054 23.6438 8.46794C21.8021 5.88824 19.3416 4.14213 16.3345 3.15667C16.3952 3.0464 16.4735 3.08673 16.5356 3.09027C18.1248 3.1669 19.6558 3.50787 21.131 4.10655C21.9588 4.44282 22.7447 4.85619 23.4973 5.33775C23.5341 5.36098 23.5782 5.37303 23.6191 5.39101L25.4317 6.81224L25.4332 6.81205Z" fill="white"/>
<g clip-path="url(#clip0_1432_1549)">
<path d="M51.5475 7.38267C53.9724 7.38267 56.4005 7.40564 58.8253 7.36954C59.6205 7.35641 59.8594 7.66488 59.8594 8.4295C59.8594 10.8973 58.2494 12.4888 55.8965 12.4035C52.7387 12.2919 49.5743 12.3707 46.4131 12.3805C45.8438 12.3805 45.2711 12.4232 44.7017 12.4823C43.864 12.5709 43.3862 13.1189 43.3796 13.959C43.3731 14.7728 43.8738 15.4226 44.6461 15.5276C45.1009 15.5899 45.5721 15.567 46.0336 15.5702C48.8413 15.5735 51.649 15.649 54.4534 15.5571C58.8384 15.4127 61.0342 19.0258 60.8215 22.5174C60.6219 25.7858 58.7304 28.0928 55.8867 28.654C55.5693 28.7163 55.2388 28.7458 54.9148 28.7458C50.1993 28.7524 45.4838 28.7524 40.7683 28.7491C39.744 28.7491 39.708 28.7032 39.7015 27.6924C39.6818 25.1459 41.0203 23.7742 43.5465 23.7709C47.1429 23.7644 50.7425 23.7808 54.3389 23.7611C55.7067 23.7545 56.3972 22.7701 55.9816 21.5165C55.7362 20.7814 55.2159 20.5386 54.4698 20.5419C51.3348 20.5583 48.1999 20.555 45.0682 20.5484C42.0543 20.5386 39.9371 19.0126 39.0306 16.2134C38.0882 13.2994 38.9881 10.0933 41.2264 8.44919C42.2049 7.73052 43.3077 7.38923 44.5152 7.38595C46.8582 7.37939 49.2045 7.38595 51.5475 7.38595V7.38267Z" fill="white"/>
<path d="M79.3021 28.7459C77.5317 28.7459 75.7581 28.7262 73.9877 28.7558C73.3136 28.7656 73.0845 28.4932 73.0649 27.8369C72.9896 25.2904 74.4818 23.689 77.031 23.666C79.2922 23.6463 81.5567 23.584 83.8179 23.6693C87.2638 23.8006 89.4628 21.1162 89.5381 18.0217C89.6166 14.8681 87.1362 12.42 83.8605 12.3839C80.5619 12.3478 77.2634 12.3577 73.9681 12.3938C73.2841 12.4003 73.0911 12.1936 73.0616 11.5208C72.9569 9.09247 74.5145 7.24165 77.0932 7.36307C79.4035 7.47136 81.7269 7.38276 84.0437 7.38932C89.1879 7.39917 93.5468 11.3371 94.1554 16.5154C94.7215 21.3262 92.3949 25.7662 88.2324 27.791C86.9398 28.4178 85.5687 28.7459 84.1288 28.7492C82.5221 28.7525 80.9121 28.7492 79.3053 28.7492L79.3021 28.7459Z" fill="white"/>
<path d="M109.301 7.38951C111.916 7.38951 114.534 7.38951 117.149 7.38951C118.143 7.38951 118.179 7.45514 118.196 8.47243C118.235 10.7663 116.71 12.4727 114.289 12.3972C110.751 12.2889 107.204 12.3907 103.663 12.3546C102.881 12.348 102.609 12.5875 102.632 13.3817C102.708 15.9545 102.298 15.5541 104.772 15.5738C107.714 15.5968 110.659 15.6001 113.601 15.5672C114.377 15.5574 114.645 15.8068 114.642 16.6009C114.629 19.131 113.294 20.5356 110.784 20.5421C107.786 20.552 104.789 20.552 101.791 20.5421C99.3664 20.5323 97.9298 19.0884 97.9102 16.66C97.8971 14.8551 97.8971 13.0535 97.9102 11.2487C97.9298 8.79731 99.3468 7.38951 101.778 7.38622C104.285 7.38294 106.791 7.38622 109.298 7.38622L109.301 7.38951Z" fill="white"/>
<path d="M69.3928 18.1556C69.3928 21.2961 69.3928 24.4366 69.3928 27.5771C69.3928 28.6862 69.3176 28.7551 68.254 28.7551C66.1139 28.7551 64.5431 27.2948 64.5268 25.1421C64.4875 20.4199 64.4842 15.6944 64.5268 10.9722C64.5464 8.78993 66.0844 7.38213 68.2606 7.38869C69.3012 7.38869 69.3896 7.46745 69.3928 8.49459C69.3994 10.5161 69.3928 12.5342 69.3928 14.5557C69.3928 15.7568 69.3928 16.9578 69.3928 18.1589V18.1556Z" fill="white"/>
<path d="M108.094 23.7138C111.121 23.7138 114.145 23.7368 117.172 23.7007C117.954 23.6908 118.219 23.9534 118.209 24.7377C118.183 27.2185 116.772 28.6788 114.315 28.6788C110.146 28.6788 105.974 28.6821 101.805 28.6788C99.3143 28.6788 97.881 27.166 97.9006 24.6491C97.9071 23.9402 98.1427 23.6908 98.8561 23.6974C101.935 23.7269 105.015 23.7105 108.097 23.7105L108.094 23.7138Z" fill="white"/>
</g>
<defs>
<clipPath id="clip0_1432_1549">
<rect width="80.2848" height="21.3993" fill="white" transform="translate(38.6602 7.35547)"/>
</clipPath>
</defs>
</svg>
