<svg width="44" height="44" viewBox="0 0 44 44" fill="none" xmlns="http://www.w3.org/2000/svg">
<circle opacity="0.1" cx="22" cy="22" r="22" fill="#AFB2FF"/>
<path d="M33.9418 13.796C33.9154 12.9376 33.2294 12.1267 32.4179 11.9801C32.4179 11.9801 29.2715 11.4648 27.5059 10.8142C25.3017 10.0018 23.1203 8.21602 23.1203 8.21602C22.4399 7.71286 21.3963 7.74407 20.7653 8.288C20.7653 8.288 19.2211 9.90176 16.3398 10.8438C13.6778 11.9517 11.5503 12.0651 11.5503 12.0651C10.7474 12.1735 10.0562 12.9411 10.0406 13.7993C10.0406 13.7993 9.93253 18.2112 10.069 22.0833C10.1205 29.0103 18.0384 35.8584 22.0395 35.8584C25.9779 35.8584 32.784 31.0873 33.8546 22.184C34.1192 16.8981 33.9418 13.796 33.9418 13.796ZM27.7984 19.8728L20.9908 27.0093C20.7008 27.3133 20.2086 27.3484 19.8751 27.0738L16.3202 24.148C15.6671 23.6105 15.599 22.675 16.1769 22.049C16.7508 21.4272 17.7363 21.345 18.4026 21.885L20.0528 23.2228L25.7242 17.6889C26.315 17.1125 27.2541 17.1288 27.8308 17.6988C27.8226 17.6899 27.8203 17.6778 27.8118 17.6689L27.8598 17.7188C27.8513 17.71 27.8394 17.7074 27.8308 17.6988C28.3854 18.3024 28.3777 19.2656 27.7984 19.8728Z" fill="#139FFF"/>
</svg>
