<svg width="44" height="44" viewBox="0 0 44 44" fill="none" xmlns="http://www.w3.org/2000/svg">
<circle opacity="0.1" cx="22" cy="22" r="22" fill="#AFB2FF"/>
<path d="M10 31.7692L12.3214 28.5769C12.3214 28.5769 12.9579 28.0769 12.9579 25.8462V15.9615C12.9579 15.9615 13.0702 15.0769 12.2465 14.0385C11.4228 13 10.6365 12 10.6365 12H17.2262L22.6927 24.1538L27.4477 12H33.9626L31.9407 14.3846V29.5385L34 31.7308H24.8643L26.8487 29.6923L26.961 16.2692L20.7832 32L14.0437 16.7692L13.9314 26.5C13.9314 26.5 13.8565 27.5769 14.493 28.5C15.1295 29.3846 16.9641 31.7692 16.9641 31.7692H10Z" fill="white"/>
</svg>
