<svg width="44" height="44" viewBox="0 0 44 44" fill="none" xmlns="http://www.w3.org/2000/svg">
<circle opacity="0.1" cx="22" cy="22" r="22" fill="#AFB2FF"/>
<path d="M31.7396 13.7023C31.7319 13.6875 31.719 13.6758 31.7033 13.6695C29.8879 12.8496 27.9721 12.2649 26.0039 11.9301C25.986 11.9269 25.9676 11.9292 25.9511 11.9369C25.9347 11.9445 25.9211 11.9571 25.9123 11.9728C25.6515 12.4389 25.4147 12.9176 25.2028 13.4072C23.0812 13.0902 20.9232 13.0902 18.8016 13.4072C18.5883 12.9164 18.3477 12.4375 18.0808 11.9728C18.0717 11.9575 18.0581 11.9452 18.0417 11.9376C18.0254 11.93 18.0071 11.9274 17.9892 11.9301C16.0208 12.2642 14.1049 12.8489 12.2898 13.6695C12.2742 13.676 12.2611 13.6871 12.2522 13.7012C8.62228 19.0374 7.6279 24.2424 8.11571 29.3829C8.11708 29.3955 8.12101 29.4077 8.12727 29.4188C8.13353 29.4298 8.14199 29.4395 8.15214 29.4473C10.2658 30.9879 12.63 32.1638 15.1438 32.925C15.1615 32.9302 15.1804 32.9299 15.198 32.9243C15.2156 32.9186 15.2309 32.9078 15.2421 32.8933C15.782 32.1701 16.2604 31.4044 16.6724 30.6038C16.6781 30.5928 16.6813 30.5808 16.6819 30.5685C16.6825 30.5562 16.6804 30.5439 16.6758 30.5324C16.6712 30.5209 16.6642 30.5106 16.6553 30.502C16.6463 30.4934 16.6356 30.4867 16.6239 30.4825C15.8695 30.1983 15.1391 29.8558 14.4397 29.4581C14.427 29.4508 14.4163 29.4404 14.4086 29.4281C14.4009 29.4157 14.3964 29.4016 14.3956 29.3872C14.3947 29.3727 14.3975 29.3582 14.4036 29.345C14.4098 29.3318 14.4191 29.3204 14.4309 29.3116C14.5781 29.2034 14.7227 29.0918 14.8646 28.977C14.8771 28.9669 14.8922 28.9605 14.9081 28.9584C14.9241 28.9562 14.9404 28.9585 14.9551 28.965C19.5375 31.0237 24.4985 31.0237 29.0266 28.965C29.0413 28.9581 29.0578 28.9555 29.074 28.9574C29.0902 28.9594 29.1056 28.9658 29.1182 28.976C29.2603 29.0913 29.4053 29.2033 29.5531 29.3116C29.5649 29.3203 29.5743 29.3317 29.5806 29.3448C29.5868 29.3579 29.5897 29.3724 29.5889 29.3869C29.5882 29.4014 29.5838 29.4154 29.5762 29.4279C29.5686 29.4403 29.558 29.4507 29.5454 29.4581C28.8475 29.8592 28.1165 30.2015 27.3601 30.4814C27.3484 30.4858 27.3377 30.4926 27.3288 30.5013C27.3199 30.5101 27.313 30.5206 27.3085 30.5321C27.304 30.5437 27.302 30.556 27.3027 30.5684C27.3034 30.5807 27.3067 30.5928 27.3125 30.6038C27.7314 31.3999 28.2091 32.1647 28.7417 32.892C28.7525 32.9069 28.7678 32.9181 28.7855 32.924C28.8031 32.9299 28.8222 32.9302 28.84 32.9248C31.3583 32.1663 33.7266 30.9902 35.843 29.4473C35.8533 29.4399 35.8618 29.4304 35.8681 29.4195C35.8744 29.4086 35.8782 29.3965 35.8794 29.384C36.4634 23.441 34.9017 18.2787 31.7396 13.7023ZM17.3567 26.2528C15.9771 26.2528 14.8404 25.0066 14.8404 23.476C14.8404 21.9454 15.9551 20.6991 17.3567 20.6991C18.7694 20.6991 19.8951 21.9563 19.8731 23.4759C19.8731 25.0066 18.7583 26.2528 17.3567 26.2528ZM26.6606 26.2528C25.281 26.2528 24.1442 25.0066 24.1442 23.476C24.1442 21.9454 25.259 20.6991 26.6606 20.6991C28.0733 20.6991 29.199 21.9563 29.177 23.4759C29.177 25.0066 28.0733 26.2528 26.6606 26.2528Z" fill="#5A64EA"/>
</svg>
