<svg width="44" height="44" viewBox="0 0 44 44" fill="none" xmlns="http://www.w3.org/2000/svg">
<circle opacity="0.1" cx="22" cy="22" r="22" fill="#AFB2FF"/>
<path fill-rule="evenodd" clip-rule="evenodd" d="M35.9471 13.6205C34.9363 14.0667 33.8655 14.3612 32.7691 14.4946C33.9235 13.799 34.7878 12.7082 35.2024 11.4237C34.1326 12.0496 32.9469 12.5052 31.6847 12.7589C29.9725 10.9234 27.2435 10.4708 25.0328 11.6555C22.8221 12.8403 21.6817 15.3667 22.2531 17.8136C17.652 17.5959 13.5741 15.381 10.8449 12.0327C10.3486 12.8783 10.0897 13.8427 10.0957 14.8239C10.0957 16.7523 11.0744 18.4474 12.5571 19.4432C11.6784 19.4151 10.819 19.177 10.0507 18.7485V18.8173C10.0497 21.4596 11.9064 23.7366 14.4898 24.261C13.6779 24.4791 12.8276 24.5118 12.0014 24.3568C12.7307 26.6177 14.8109 28.1654 17.1807 28.2104C15.2227 29.7508 12.8051 30.5868 10.3162 30.5843C9.87746 30.5843 9.43986 30.5584 9 30.5088C11.5376 32.1376 14.4881 33.0023 17.5013 33C27.6866 33 33.2495 24.5463 33.2495 17.2271C33.2495 16.9914 33.2495 16.7535 33.2326 16.5166C34.3193 15.7327 35.2566 14.7594 36 13.6431L35.9471 13.6205V13.6205Z" fill="#2B7FFF"/>
</svg>
