<svg width="35" height="34" viewBox="0 0 35 34" fill="none" xmlns="http://www.w3.org/2000/svg">
<path d="M29.5493 25.9244L20.7368 17.17L29.5493 8.41566C30.4259 7.54478 30.4259 6.11821 29.5493 5.24318C28.6726 4.37231 27.2366 4.37231 26.3557 5.24318L17.5433 13.9976L8.73089 5.24318C7.85424 4.37231 6.4182 4.37231 5.53737 5.24318C4.66072 6.11406 4.66072 7.54064 5.53737 8.41566L14.3498 17.17L5.53737 25.9244C4.66072 26.7953 4.66072 28.2218 5.53737 29.0969C6.41402 29.9677 7.85006 29.9677 8.73089 29.0969L17.5433 20.3425L26.3557 29.0969C27.2324 29.9677 28.6684 29.9677 29.5493 29.0969C30.4301 28.226 30.4301 26.7994 29.5493 25.9244Z" fill="white"/>
</svg>
