<svg width="33" height="34" viewBox="0 0 33 34" fill="none" xmlns="http://www.w3.org/2000/svg">
<circle opacity="0.2" cx="16.7565" cy="16.9459" r="15.9459" stroke="white" stroke-width="0.398649"/>
<path fill-rule="evenodd" clip-rule="evenodd" d="M16.7563 5.47997C10.1518 5.47997 4.79688 10.834 4.79688 17.4394C4.79688 22.7236 8.2235 27.2065 12.9752 28.7875C13.5727 28.898 13.7928 28.5282 13.7928 28.212C13.7928 27.9269 13.7818 26.9845 13.7765 25.9857C10.4494 26.709 9.74713 24.5744 9.74713 24.5744C9.20322 23.1924 8.41916 22.8245 8.41916 22.8245C7.33419 22.0821 8.50096 22.0974 8.50096 22.0974C9.70169 22.1816 10.3341 23.3297 10.3341 23.3297C11.4009 25.1581 13.1317 24.6295 13.8148 24.3238C13.9219 23.5507 14.2319 23.0231 14.574 22.7246C11.9175 22.4222 9.12524 21.3966 9.12524 16.8142C9.12524 15.5087 9.59262 14.4414 10.3575 13.6043C10.2332 13.3029 9.82368 12.0869 10.4733 10.4393C10.4733 10.4393 11.4779 10.1183 13.7631 11.6654C14.717 11.4004 15.7403 11.2674 16.7568 11.2626C17.7729 11.2674 18.7966 11.3999 19.7524 11.6654C22.0352 10.1178 23.0379 10.4393 23.0379 10.4393C23.689 12.0869 23.2795 13.3029 23.1556 13.6043C23.9224 14.4419 24.3865 15.5087 24.3865 16.8142C24.3865 21.4076 21.5884 22.4189 18.9253 22.715C19.3544 23.0862 19.7366 23.8138 19.7366 24.9294C19.7366 26.5296 19.7228 27.8174 19.7228 28.2116C19.7228 28.5297 19.938 28.9028 20.5441 28.7856C25.2935 27.2027 28.7158 22.7212 28.7158 17.439C28.7158 10.8335 23.3613 5.47949 16.7563 5.47949V5.47997Z" fill="#F3F3F3"/>
</svg>
