<svg width="34" height="34" viewBox="0 0 34 34" fill="none" xmlns="http://www.w3.org/2000/svg">
<circle opacity="0.2" cx="16.9733" cy="16.9459" r="15.9459" stroke="white" stroke-width="0.398649"/>
<path d="M24.6526 9.43577C24.6465 9.42375 24.6363 9.41433 24.624 9.40921C23.1976 8.74547 21.6924 8.27217 20.1459 8.00116C20.1319 7.99851 20.1174 8.00042 20.1044 8.00662C20.0915 8.01282 20.0809 8.02299 20.074 8.03569C19.869 8.41299 19.683 8.80054 19.5165 9.19686C17.8495 8.94022 16.1539 8.94022 14.4869 9.19686C14.3194 8.79953 14.1303 8.41189 13.9207 8.03569C13.9135 8.02327 13.9028 8.01333 13.8899 8.00717C13.8771 8.00101 13.8627 7.99892 13.8487 8.00116C12.3021 8.2716 10.7967 8.74494 9.37053 9.40924C9.35833 9.41449 9.34802 9.42346 9.34105 9.4349C6.48894 13.7547 5.70763 17.9682 6.09091 22.1296C6.09199 22.1398 6.09508 22.1496 6.1 22.1586C6.10492 22.1676 6.11156 22.1754 6.11954 22.1817C7.7803 23.4289 9.63788 24.3808 11.613 24.997C11.6269 25.0012 11.6418 25.001 11.6556 24.9964C11.6694 24.9918 11.6815 24.9831 11.6902 24.9713C12.1144 24.3859 12.4903 23.766 12.814 23.1179C12.8185 23.109 12.821 23.0993 12.8215 23.0893C12.8219 23.0794 12.8203 23.0694 12.8167 23.0601C12.8131 23.0509 12.8076 23.0425 12.8006 23.0355C12.7936 23.0285 12.7851 23.0231 12.7759 23.0197C12.1832 22.7897 11.6093 22.5124 11.0598 22.1905C11.0498 22.1845 11.0414 22.1762 11.0353 22.1661C11.0293 22.1561 11.0258 22.1448 11.0251 22.133C11.0244 22.1213 11.0266 22.1096 11.0314 22.0989C11.0363 22.0883 11.0436 22.079 11.0528 22.0719C11.1685 21.9842 11.2821 21.8939 11.3936 21.801C11.4034 21.7929 11.4153 21.7876 11.4278 21.7859C11.4404 21.7842 11.4532 21.7861 11.4647 21.7913C15.0651 23.4578 18.9631 23.4578 22.5209 21.7913C22.5325 21.7857 22.5454 21.7836 22.5581 21.7852C22.5709 21.7867 22.5829 21.7919 22.5929 21.8002C22.7045 21.8936 22.8185 21.9842 22.9346 22.0719C22.9438 22.0789 22.9512 22.0881 22.9562 22.0988C22.9611 22.1094 22.9633 22.1211 22.9627 22.1328C22.9621 22.1445 22.9587 22.1559 22.9527 22.166C22.9468 22.176 22.9384 22.1844 22.9285 22.1905C22.3802 22.5151 21.8058 22.7922 21.2115 23.0188C21.2023 23.0224 21.1939 23.0279 21.1869 23.035C21.1799 23.0421 21.1745 23.0505 21.171 23.0599C21.1674 23.0692 21.1659 23.0792 21.1664 23.0892C21.167 23.0992 21.1696 23.109 21.1741 23.1179C21.5033 23.7624 21.8786 24.3815 22.2971 24.9703C22.3056 24.9824 22.3176 24.9914 22.3314 24.9962C22.3453 25.001 22.3603 25.0012 22.3743 24.9968C24.3529 24.3828 26.2138 23.4308 27.8766 22.1817C27.8847 22.1758 27.8914 22.1681 27.8964 22.1592C27.9013 22.1504 27.9043 22.1406 27.9052 22.1304C28.3641 17.3195 27.137 13.1405 24.6526 9.43577ZM13.3517 19.5957C12.2677 19.5957 11.3746 18.5868 11.3746 17.3478C11.3746 16.1088 12.2504 15.0998 13.3517 15.0998C14.4616 15.0998 15.3462 16.1175 15.3289 17.3477C15.3289 18.5868 14.453 19.5957 13.3517 19.5957ZM20.6619 19.5957C19.5779 19.5957 18.6848 18.5868 18.6848 17.3478C18.6848 16.1088 19.5606 15.0998 20.6619 15.0998C21.7719 15.0998 22.6564 16.1175 22.639 17.3477C22.639 18.5868 21.7719 19.5957 20.6619 19.5957Z" fill="#F3F3F3"/>
</svg>
