<svg width="42" height="42" viewBox="0 0 42 42" fill="none" xmlns="http://www.w3.org/2000/svg">
<circle opacity="0.2" cx="21" cy="21" r="20" stroke="white" stroke-width="0.5"/>
<path fill-rule="evenodd" clip-rule="evenodd" d="M36 21C36 29.2844 29.2812 36 21 36C12.7188 36 6 29.2844 6 21C6 12.7156 12.7188 6 21 6C29.2812 6 36 12.7156 36 21ZM13.1188 15.5212C13.3 15.6906 13.3938 15.9388 13.3688 16.19V25.2369C13.425 25.5631 13.325 25.8969 13.1 26.135L11 28.7431V29.0869H16.9563V28.7431L14.8562 26.135C14.6313 25.8969 14.525 25.5656 14.5688 25.2369V17.4125L19.7937 29.0869H20.4L24.8937 17.4125V26.7175C24.8937 26.9663 24.8937 27.0138 24.7375 27.1763L23.1187 28.7812V29.125H30.9625V28.7812L29.4062 27.2144C29.2683 27.1048 29.1992 26.9299 29.225 26.7556V15.2444C29.1992 15.0701 29.2683 14.8952 29.4062 14.7856L31 13.2188V12.875H25.475L21.5312 22.9344L17.05 12.875H11.25V13.2188L13.1188 15.5212Z" fill="white"/>
</svg>
