<svg width="42" height="42" viewBox="0 0 42 42" fill="none" xmlns="http://www.w3.org/2000/svg">
<circle opacity="0.2" cx="21" cy="21" r="20" stroke="white" stroke-width="0.5"/>
<path fill-rule="evenodd" clip-rule="evenodd" d="M19.26 29.005C19.8227 29.005 20.1603 29.4627 20.1603 29.9204C20.1603 30.4926 19.7102 30.8359 19.26 30.8359C18.6973 30.8359 18.3597 30.3782 18.3597 29.9204C18.3597 29.4627 18.6973 29.005 19.26 29.005ZM34.0032 23.1689C33.4404 23.1689 33.1028 22.7111 33.1028 22.2534C33.1028 21.7957 33.553 21.3379 34.0032 21.3379C34.5659 21.3379 34.9035 21.7957 34.9035 22.2534C34.9035 22.7111 34.4533 23.1689 34.0032 23.1689ZM34.0032 19.2781C32.4276 19.2781 31.077 20.6513 31.077 22.2534C31.077 22.5967 31.077 22.94 31.1896 23.1689L21.6234 28.3184C21.0607 27.5173 20.1603 27.0596 19.26 27.0596C18.1346 27.0596 17.1217 27.7462 16.6715 28.6617L8.11822 24.0843C7.21787 23.6266 6.54261 22.0245 6.65516 20.6513C6.65516 19.9647 6.99279 19.3926 7.33042 19.1637C7.5555 19.0493 7.89313 19.0493 8.11822 19.1637H8.23076C10.4816 20.4225 18.022 24.3132 18.2471 24.5421C18.6973 24.7709 19.0349 24.8854 19.8227 24.4276L35.2411 16.3028C35.4662 16.1884 35.6913 15.9595 35.6913 15.6162C35.6913 15.1585 35.2411 14.9296 35.2411 14.9296C34.3408 14.4719 32.9903 13.8997 31.7523 13.2131C28.9387 11.8399 25.7875 10.3523 24.3244 9.66571C23.0865 8.97911 22.1861 9.55128 21.961 9.66571L21.6234 9.78014C15.321 12.9843 6.88024 17.2183 6.43007 17.4472C5.52972 18.0194 5.07955 19.0493 4.96701 20.308C4.85447 22.3678 5.86735 24.5421 7.44296 25.3431L16.559 30.1493C16.784 31.6369 18.022 32.6668 19.3725 32.6668C20.9481 32.6668 22.2987 31.4081 22.2987 29.806L32.315 24.3132C32.8777 24.7709 33.4404 24.8854 34.1157 24.8854C35.6913 24.8854 37.0418 23.5122 37.0418 21.9101C36.8167 20.5369 35.5788 19.2781 34.0032 19.2781Z" fill="white"/>
</svg>
