<svg width="34" height="34" viewBox="0 0 34 34" fill="none" xmlns="http://www.w3.org/2000/svg">
<circle opacity="0.2" cx="16.8649" cy="16.9459" r="15.9459" stroke="white" stroke-width="0.398649"/>
<path fill-rule="evenodd" clip-rule="evenodd" d="M28.7798 10.2311C27.9216 10.6151 27.0125 10.8686 26.0817 10.9834C27.0617 10.3847 27.7955 9.4459 28.1475 8.34024C27.2392 8.87897 26.2326 9.27113 25.161 9.48953C23.7074 7.90968 21.3906 7.52005 19.5137 8.53981C17.6369 9.55956 16.6687 11.7341 17.1539 13.8401C13.2477 13.6528 9.7856 11.7464 7.46864 8.86441C7.04726 9.59225 6.82747 10.4224 6.83257 11.2669C6.83257 12.9267 7.66347 14.3857 8.92223 15.2428C8.1762 15.2187 7.44664 15.0136 6.79437 14.6448V14.7041C6.79349 16.9784 8.36982 18.9382 10.563 19.3896C9.87375 19.5773 9.15184 19.6055 8.45043 19.4721C9.0696 21.418 10.8356 22.7502 12.8475 22.7889C11.1852 24.1147 9.13279 24.8343 7.01976 24.8322C6.64729 24.8322 6.27577 24.8099 5.90234 24.7671C8.05667 26.1691 10.5616 26.9133 13.1197 26.9114C21.7668 26.9114 26.4895 19.6351 26.4895 13.3354C26.4895 13.1325 26.4895 12.9277 26.4752 12.7239C27.3978 12.0491 28.1936 11.2113 28.8246 10.2506L28.7798 10.2311Z" fill="#F3F3F3"/>
</svg>
